<?xml version="1.0" standalone="no"?>
<!DOCTYPE svg PUBLIC "-//W3C//DTD SVG 1.1//EN" "http://www.w3.org/Graphics/SVG/1.1/DTD/svg11.dtd" >
<svg xmlns="http://www.w3.org/2000/svg" xmlns:xlink="http://www.w3.org/1999/xlink" version="1.1">
<metadata>
Created by FontForge 20200427 at Tue Feb 16 19:21:21 2016
 By www
Copyright (c) 2011 by Letterbox. All rights reserved.
</metadata>
<defs>
<font id="GordonW01-Black" horiz-adv-x="642" >
  <font-face 
    font-family="GordonW01-Black"
    font-weight="900"
    font-stretch="normal"
    units-per-em="1000"
    panose-1="2 0 0 0 0 0 0 0 0 0"
    ascent="800"
    descent="-200"
    x-height="500"
    cap-height="500"
    bbox="-9.33333 -250 800 724"
    underline-thickness="50"
    underline-position="-125"
    unicode-range="U+0020-2122"
  />
<missing-glyph horiz-adv-x="320" 
 />
    <glyph glyph-name=".notdef" horiz-adv-x="320" 
 />
    <glyph glyph-name=".null" horiz-adv-x="0" 
 />
    <glyph glyph-name="nonmarkingreturn" horiz-adv-x="333" 
 />
    <glyph glyph-name="space" unicode=" " horiz-adv-x="280" 
 />
    <glyph glyph-name="exclam" unicode="!" horiz-adv-x="278" 
d="M145 122q29 0 48.5 -19t19.5 -45q0 -28 -19.5 -47t-48.5 -19t-48 19.5t-19 46.5q0 26 19 45t48 19zM188 180h-85q-4 0 -7.5 3t-3.5 7l-30 300q0 4 3 7t6 3h148q4 0 7 -3t2 -7l-29 -300q-2 -10 -11 -10z" />
    <glyph glyph-name="quotedbl" unicode="&#x22;" horiz-adv-x="396" 
d="M88 370l-24 170q-1 4 1.5 7t6.5 3h105q4 0 7 -3t2 -7l-25 -170q-2 -10 -11 -10h-50q-10 0 -12 10zM225 550h105q4 0 6.5 -3t1.5 -7l-24 -170q-2 -10 -12 -10h-49q-10 0 -12 10l-25 170q0 4 2.5 7t6.5 3z" />
    <glyph glyph-name="numbersign" unicode="#" horiz-adv-x="492" 
d="M420 269h-75q-9 0 -11 -10l-4 -19q-1 -4 2 -6.5t7 -2.5h81q4 0 7 -3t3 -7v-50q0 -10 -10 -10h-94q-4 0 -7.5 -3t-4.5 -7l-13 -79q-1 -4 -4.5 -7t-7.5 -3h-50q-4 0 -6.5 3t-1.5 7l13 79q1 4 -1.5 7t-6.5 3h-18q-4 0 -7.5 -3t-4.5 -7l-14 -79q-1 -4 -4.5 -7t-7.5 -3h-50
q-4 0 -6.5 3t-1.5 7l14 79q1 4 -1.5 7t-6.5 3h-63q-4 0 -7 3t-3 7v50q0 4 3 7t7 3h75q4 0 7.5 3t4.5 6l3 19q1 4 -1.5 7t-6.5 3h-82q-4 0 -7 3t-3 7v50q0 4 3 7t7 3h94q4 0 7.5 3t4.5 7l14 78q2 10 11 10h50q4 0 7 -3t2 -7l-14 -78q-1 -4 1.5 -7t6.5 -3h19q3 0 6.5 3t4.5 7
l14 78q2 10 12 10h50q4 0 6.5 -3t1.5 -7l-14 -78q-1 -4 2 -7t7 -3h62q10 0 10 -10v-50q0 -4 -3 -7t-7 -3z" />
    <glyph glyph-name="dollar" unicode="$" horiz-adv-x="495" 
d="M448 147q0 -52 -30.5 -88t-95.5 -47l-4 -1q-3 -1 -5 -4.5t-2 -6.5v-29q0 -4 -3 -7t-7 -3h-97q-4 0 -7 3t-3 7v33q0 3 -2 7t-5 5h-3q-42 12 -77 33.5t-52 41.5q-5 7 2 14l78 61q4 3 8.5 3t7.5 -3q16 -13 39 -23t45 -11q15 -1 24.5 7.5t3.5 16.5t-18 12q-29 10 -68.5 28
t-62.5 34q-28 20 -38.5 46.5t-10.5 58.5q0 30 17.5 58.5t45 45.5t53.5 25l4 1q3 1 6 4.5t3 7.5v32q0 10 10 10h97q4 0 7 -3t3 -7v-29q0 -3 2 -6.5t4 -4.5l3 -1q31 -8 58 -25t42 -35t19 -27q1 -3 -0.5 -7.5t-4.5 -5.5l-88 -50q-9 -5 -14 3q-8 12 -24 20.5t-35 7.5
q-13 -1 -19.5 -8.5t-1 -18.5t28.5 -18q28 -8 65 -27t59 -37q22 -19 32.5 -40.5t10.5 -52.5z" />
    <glyph glyph-name="percent" unicode="%" horiz-adv-x="686" 
d="M478 500h57q4 0 5.5 -2.5t-0.5 -5.5l-322 -483q-2 -3 -6.5 -6t-8.5 -3h-57q-4 0 -5.5 2.5t0.5 6.5l322 483q5 8 15 8zM308 370q0 -24 -12.5 -52t-44 -48t-70.5 -20t-71 20t-44.5 48t-12.5 52q0 51 36.5 84.5t91.5 33.5q54 0 90.5 -33.5t36.5 -84.5zM142 370
q0 -19 10.5 -32.5t28.5 -13.5q17 0 27.5 13.5t10.5 32.5t-10.5 32.5t-27.5 13.5q-18 0 -28.5 -13.5t-10.5 -32.5zM511 259q55 0 91.5 -33.5t36.5 -84.5q0 -24 -12.5 -52t-44.5 -48t-71 -20t-70.5 20t-44 48t-12.5 52q0 51 36.5 84.5t90.5 33.5zM511 95q18 0 28.5 13.5
t10.5 32.5t-10.5 32.5t-28.5 13.5q-17 0 -27.5 -13.5t-10.5 -32.5t10.5 -32.5t27.5 -13.5z" />
    <glyph glyph-name="ampersand" unicode="&#x26;" horiz-adv-x="833" 
d="M586 110l67 -102q2 -3 0.5 -5.5t-5.5 -2.5h-126q-3 0 -8.5 2t-7.5 6l-19 33q-17 -25 -53.5 -40.5t-73.5 -15.5q-27 0 -56 10t-51 29t-35.5 48t-13.5 64t9 62t22 44t25 26t21.5 14.5t17 8.5t19.5 7q-45 42 -45 100q0 53 38.5 82.5t96.5 29.5q43 0 75.5 -14t49 -38
t16.5 -60q0 -37 -24.5 -70.5t-60.5 -46.5l52 -74q6 10 16 43q2 8 10 8h83q4 0 7.5 -3t3.5 -7q0 2 0 -2.5t-0.5 -14.5t-4.5 -27t-15.5 -39.5t-31.5 -42.5q-3 -3 2 -12zM348 130q14 -19 34 -21t37 8q3 2 4 6t-1 7l-47 69q-5 8 -14 3q-17 -13 -22 -33t9 -39zM412 350
q18 13 20 41q2 13 -4 24t-18 11t-18 -10t-5 -25q1 -8 7 -19.5t18 -21.5z" />
    <glyph glyph-name="quotesingle" unicode="'" horiz-adv-x="272" 
d="M205 540l-25 -170q-2 -10 -12 -10h-49q-10 0 -12 10l-24 170q-1 4 1.5 7t6.5 3h105q4 0 7 -3t2 -7z" />
    <glyph glyph-name="parenleft" unicode="(" horiz-adv-x="249" 
d="M161 504q3 2 8.5 2.5t8.5 -0.5l34 -14q8 -3 3 -12q-22 -32 -39 -94.5t-17 -135.5t17.5 -137t39.5 -98q2 -3 1 -7t-5 -5l-34 -14q-11 -4 -17 2q-30 22 -60.5 67t-43.5 96t-13 96q0 59 18 112t47 89.5t52 52.5z" />
    <glyph glyph-name="parenright" unicode=")" horiz-adv-x="228" 
d="M79 504q23 -16 52 -52.5t47 -89.5t18 -112q0 -45 -13 -96t-43.5 -96t-60.5 -67q-6 -6 -17 -2l-34 14q-4 1 -5 5t1 7q22 34 39.5 98t17.5 137t-17 135.5t-39 94.5q-3 3 -2 7t5 5l34 14q3 1 8.5 0.5t8.5 -2.5z" />
    <glyph glyph-name="asterisk" unicode="*" horiz-adv-x="344" 
d="M291 410v-40q0 -4 -3 -7t-7 -3h-50q-4 0 -5.5 -2.5t0.5 -5.5l25 -43q2 -3 1 -7.5t-5 -6.5l-34 -20q-4 -1 -8 0t-6 4l-24 43q-2 4 -5.5 4t-4.5 -4l-25 -43q-1 -1 -4.5 -3.5t-9.5 -0.5l-34 20q-4 2 -5 6.5t1 7.5l25 43q2 3 0.5 5.5t-5.5 2.5h-50q-4 0 -7 3t-3 7v40q0 4 3 7
t7 3h50q4 0 5.5 3t-0.5 6l-25 42q-2 3 -1 7.5t5 6.5l34 20q3 2 7.5 1t6.5 -5l25 -43q1 -3 4.5 -3t5.5 3l24 43q2 4 6.5 5t7.5 -1l34 -20q4 -2 5 -6.5t-1 -7.5l-25 -42q-2 -3 -0.5 -6t5.5 -3h50q4 0 7 -3t3 -7z" />
    <glyph glyph-name="plus" unicode="+" horiz-adv-x="535" 
d="M452 320q9 0 13 -3.5t4 -13.5v-71q0 -4 -1 -10.5t-16 -6.5h-130v-131q0 -9 -3.5 -13t-13.5 -4h-71q-9 0 -13 3.5t-4 13.5v131h-131q-9 0 -13 3.5t-4 13.5v71q0 17 17 17h131v130q0 9 3 13t14 4h71q9 0 13 -3.5t4 -13.5v-130h130z" />
    <glyph glyph-name="comma" unicode="," horiz-adv-x="245" 
d="M122 122q19 0 35.5 -8t27 -28.5t4.5 -56.5q-6 -33 -33 -63.5t-58 -46.5q-9 -3 -16 2l-16 16q-3 3 -2.5 7t3.5 5q41 25 41 52q-1 3 -5 4q-20 5 -32 21.5t-12 36.5q0 24 18 41.5t45 17.5z" />
    <glyph glyph-name="hyphen" unicode="-" horiz-adv-x="270" 
d="M260 310v-85q0 -10 -10 -10h-230q-4 0 -7 3t-3 7v85q0 4 3 7t7 3h230q4 0 7 -3t3 -7z" />
    <glyph glyph-name="period" unicode="." horiz-adv-x="239" 
d="M124 122q29 0 48.5 -19t19.5 -45q0 -28 -19.5 -47t-48.5 -19t-48 19.5t-19 46.5q0 26 19 45t48 19z" />
    <glyph glyph-name="slash" unicode="/" horiz-adv-x="398" 
d="M396 491l-279 -483q-2 -3 -7 -5.5t-8 -2.5h-95q-4 0 -5.5 2.5t0.5 5.5l279 483q1 3 6 6t9 3h95q3 0 4.5 -2.5t0.5 -6.5z" />
    <glyph glyph-name="zero" unicode="0" horiz-adv-x="553" 
d="M281 510q57 0 103 -20.5t76 -57t45 -84.5t15 -102t-15 -101.5t-45 -83.5t-75.5 -56t-103.5 -20q-54 0 -99 20t-76 56t-47.5 84t-16.5 101q0 54 15 102t45 84.5t76 57t103 20.5zM282 116q45 0 69 35t24 91t-24 91t-69 35t-68.5 -35t-23.5 -91t23.5 -91t68.5 -35z" />
    <glyph glyph-name="one" unicode="1" horiz-adv-x="384" 
d="M167 490q1 4 5 7t8 3h115q4 0 7 -3t3 -7v-480q0 -4 -3 -7t-7 -3h-155q-10 0 -10 10v330h-96q-4 0 -7 3t-3 7v58q0 4 3 7t7 3q21 1 47 6.5t43 15.5t28.5 24t14.5 26z" />
    <glyph glyph-name="two" unicode="2" horiz-adv-x="492" 
d="M172 324q-1 -4 -5.5 -5.5t-7.5 -0.5l-109 41q-9 4 -6 13q20 54 72.5 96t125.5 42q67 0 112 -20.5t70 -60t25 -98.5q0 -41 -25.5 -80t-69 -69t-76.5 -42h151q4 0 7 -3t3 -7v-120q0 -4 -3 -7t-7 -3h-333q-9 0 -11 10l-15 85q-1 4 1.5 9t5.5 7q118 88 162 130q25 24 36 48
t10.5 38t-8 24.5t-22.5 17.5q-18 8 -33 3.5t-28.5 -18t-21.5 -30.5z" />
    <glyph glyph-name="three" unicode="3" horiz-adv-x="483" 
d="M157 342q-1 -4 -4.5 -5.5t-7.5 -0.5l-106 37q-4 1 -5.5 5.5t-0.5 7.5q11 31 37.5 60t64 46.5t88.5 17.5q92 0 143.5 -36t51.5 -108q0 -36 -15 -63.5t-34 -39.5q-1 -1 -3 -3.5t4 -4.5q26 -8 46.5 -39t20.5 -80q0 -52 -23 -84.5t-70.5 -49.5t-129.5 -17q-68 0 -119.5 33.5
t-72.5 76.5q-3 9 5 12l103 41q4 1 8.5 -0.5t5.5 -4.5q10 -13 28 -23.5t37 -10.5q30 0 50 15.5t16 43.5q-2 13 -14.5 23.5t-29.5 13t-25 2.5q-4 0 -7 3t-3 7v60q0 3 3 6.5t7 4.5q22 2 40.5 13t21.5 31q2 14 -3.5 28.5t-23 22.5t-38.5 4q-19 -4 -31 -17t-15 -28z" />
    <glyph glyph-name="four" unicode="4" horiz-adv-x="522" 
d="M483 201q10 0 10 -10v-102q0 -10 -10 -10h-43v-69q0 -4 -3 -7t-7 -3h-138q-10 0 -10 10v69h-184q-2 0 -6.5 1.5t-8.5 7.5l-49 93q-5 9 0 18l181 292q2 3 6.5 6t8.5 3h199q4 0 7 -3t3 -7v-289h44zM282 201v161l-99 -161h99z" />
    <glyph glyph-name="five" unicode="5" horiz-adv-x="477" 
d="M150 194l-92 42q-4 1 -6.5 5.5t-1.5 8.5l33 240q1 4 4.5 7t6.5 3h292q4 0 7 -3t3 -7v-120q0 -10 -10 -10h-167q-3 0 -6.5 -3t-4.5 -7l-8 -63q16 9 43 15.5t50 6.5q36 0 70.5 -15.5t53.5 -50.5t19 -81q0 -85 -58 -131t-168 -46q-28 0 -57 8.5t-59 29.5t-47 48q-1 4 0 8
t4 6l82 53q8 5 15 -2q13 -17 34 -25.5t42 -0.5q28 10 37 34t0 42t-22 25q-12 6 -27.5 5.5t-28 -7.5t-17.5 -12q-3 -3 -7.5 -3.5t-8.5 0.5z" />
    <glyph glyph-name="six" unicode="6" horiz-adv-x="486" 
d="M301 327q66 0 108.5 -42t42.5 -110q0 -87 -52 -138.5t-142 -51.5q-46 0 -87 19.5t-70.5 54.5t-43 84.5t-13.5 102.5q0 71 21.5 122.5t56.5 82.5t76 45t81 14q50 0 92.5 -23t64.5 -50q3 -3 3 -7.5t-3 -7.5l-59 -62q-2 -3 -6.5 -3t-7.5 3q-14 11 -36.5 20t-46.5 9
q-27 0 -50.5 -11t-33 -30t-9.5 -37q0 -13 5 -26q15 19 39.5 30t69.5 12zM267 108q21 0 36 14t15 35q0 22 -15 35.5t-36 13.5q-22 0 -37 -13.5t-15 -35.5q0 -21 15 -35t37 -14z" />
    <glyph glyph-name="seven" unicode="7" horiz-adv-x="474" 
d="M47 370v120q0 4 3 7t7 3h314q10 0 14 -9l43 -90q4 -11 0 -18l-158 -373q-6 -10 -14 -10h-144q-4 0 -5.5 3t-0.5 7l141 350h-190q-4 0 -7 3t-3 7z" />
    <glyph glyph-name="eight" unicode="8" horiz-adv-x="492" 
d="M365 268q16 -6 27 -12t27 -19t28.5 -37.5t12.5 -59.5q0 -33 -14 -63t-46 -52t-74.5 -31t-73.5 -9t-69 7.5t-70 25t-53 48t-21 74.5q0 18 3.5 35.5t12 34.5t20.5 28.5t21.5 17t21.5 10.5q-8 2 -24 13.5t-28 34t-12 55.5q0 31 11.5 55t34 43t63.5 31t89 12q47 0 88.5 -14
t67 -46t25.5 -82q0 -32 -20 -59t-48 -41zM249 95q19 0 32 13.5t13 38.5t-13 38.5t-32 13.5t-31.5 -13.5t-12.5 -38.5t12.5 -38.5t31.5 -13.5zM249 304q19 0 32 13.5t13 38.5t-13 38.5t-32 13.5t-31.5 -13.5t-12.5 -38.5t12.5 -38.5t31.5 -13.5z" />
    <glyph glyph-name="nine" unicode="9" horiz-adv-x="489" 
d="M237 287q22 0 37 13.5t15 35.5t-15 35.5t-37 13.5q-21 0 -36 -13.5t-15 -35.5t15 -35.5t36 -13.5zM201 168q-25 0 -60 14.5t-63 52t-28 85.5q0 87 52 138.5t142 51.5q46 0 87 -19.5t70.5 -54.5t43 -84.5t13.5 -102.5q0 -89 -27 -146.5t-78 -87.5t-130 -30q-50 0 -92.5 23
t-64.5 50q-3 3 -3 7.5t3 7.5l59 62q2 3 6.5 3t7.5 -3q14 -11 36.5 -20t46.5 -9q27 0 50.5 11t33 30t9.5 37q0 13 -5 26q-15 -19 -39.5 -30t-69.5 -12z" />
    <glyph glyph-name="colon" unicode=":" horiz-adv-x="242" 
d="M124 295q-29 0 -48 19.5t-19 45.5t19 45.5t48 19.5t48.5 -19.5t19.5 -45.5q0 -28 -19.5 -46.5t-48.5 -18.5zM124 182q29 0 48.5 -19t19.5 -45q0 -28 -19.5 -47t-48.5 -19t-48 19.5t-19 46.5q0 26 19 45t48 19z" />
    <glyph glyph-name="semicolon" unicode=";" horiz-adv-x="254" 
d="M130 295q-29 0 -48 19.5t-19 45.5t19 45.5t48 19.5t48.5 -19.5t19.5 -45.5q0 -28 -19.5 -46.5t-48.5 -18.5zM127 122q19 0 35.5 -8t27 -28.5t4.5 -56.5q-6 -33 -33 -63.5t-58 -46.5q-9 -3 -16 2l-16 16q-6 6 2 13q1 1 12 8t19.5 19t8.5 24q-1 3 -5 4q-20 5 -31.5 21.5
t-11.5 36.5q0 24 17.5 41.5t44.5 17.5z" />
    <glyph glyph-name="less" unicode="&#x3c;" horiz-adv-x="483" 
d="M417 160v-91q0 -4 -3 -5.5t-6 -0.5l-326 143q-9 4 -9 14v60q0 4 3 8.5t6 5.5l326 142q4 1 6.5 -0.5t2.5 -5.5v-90q0 -10 -9 -14l-187 -76l187 -76q3 -1 6 -5.5t3 -8.5z" />
    <glyph glyph-name="equal" unicode="=" horiz-adv-x="586" 
d="M497 402q4 0 7 -3t3 -7v-85q0 -4 -3 -7t-7 -3h-405q-4 0 -7 3t-3 7v85q0 10 10 10h405zM497 202q4 0 7 -3t3 -7v-85q0 -4 -3 -7t-7 -3h-405q-4 0 -7 3t-3 7v85q0 10 10 10h405z" />
    <glyph glyph-name="greater" unicode="&#x3e;" horiz-adv-x="492" 
d="M87 69v91q0 4 3 8.5t6 5.5l187 76l-187 76q-9 4 -9 14v90q0 2 1.5 5t7.5 1l326 -142q3 -1 6 -5.5t3 -8.5v-60q0 -10 -9 -14l-326 -143q-3 -1 -6 0.5t-3 5.5z" />
    <glyph glyph-name="question" unicode="?" horiz-adv-x="396" 
d="M204 510q45 0 78.5 -14.5t52 -39t24.5 -53.5t-1 -57q-9 -39 -40 -75t-38.5 -53t-10.5 -29l-1 -3l-3 -5l-13 -1h-82l-14 2l-1 12q-1 19 7 45t25 49q4 5 19 24t22 31t6.5 21t-6 15t-15.5 12q-21 11 -41.5 -0.5t-32.5 -33.5l-8 -11l-12 4l-66 25l-12 7l3 12q14 46 56 81
t104 35zM211 122q29 0 48.5 -19t19.5 -45q0 -28 -19.5 -47t-48.5 -19t-48 19.5t-19 46.5q0 26 19 45t48 19z" />
    <glyph glyph-name="at" unicode="@" horiz-adv-x="646" 
d="M598 268q0 -48 -11.5 -92t-40.5 -68.5t-66 -24.5q-61 0 -87 37q-4 5 -8 -2q-23 -31 -79 -31q-53 0 -95 45t-42 105q0 31 14 65.5t48 59t78 24.5q35 0 57 -18t27 -41q2 -6 2.5 -3.5t0.5 4.5v40q0 4 3 7t7 3h56q4 0 7 -3t3 -7v-193l-1 -20q0 -11 3.5 -19t10.5 -8
q16 0 30 16t22 52t8 72q0 32 -10.5 64.5t-35.5 59.5t-66.5 44.5t-99.5 17.5q-35 0 -72 -11.5t-72.5 -42t-53 -75t-17.5 -88.5q0 -61 26.5 -105t77 -66.5t118.5 -25.5h7q4 0 7 -3t3 -7v-31q0 -4 -3 -7t-7 -3h-8q-93 5 -156 40.5t-90.5 88.5t-27.5 119q0 55 19.5 104.5
t55 86.5t85.5 58t108 21q57 0 106 -16.5t84.5 -48t55 -76.5t19.5 -98zM333 182q24 0 39.5 12.5t15.5 39.5t-16 40.5t-39 13.5q-22 0 -37 -14.5t-15 -39.5q0 -21 15.5 -36.5t36.5 -15.5z" />
    <glyph glyph-name="A" unicode="A" horiz-adv-x="609" 
d="M419 491l179 -482q1 -4 -1 -6.5t-6 -2.5h-172q-10 0 -14 9l-22 61q-1 4 -5.5 7t-7.5 3h-134q-3 0 -7.5 -3t-5.5 -7l-20 -61q-4 -9 -13 -9h-172q-4 0 -5.5 3t-0.5 6l170 482q4 9 14 9h209q10 0 14 -9zM350 201l-47 138l-43 -138h90z" />
    <glyph glyph-name="B" unicode="B" horiz-adv-x="568" 
d="M434 255q12 0 32 -10t32.5 -24.5t20 -34.5t7.5 -46q0 -44 -19 -76t-65.5 -48t-142.5 -16h-225q-4 0 -7 3t-3 7v480q0 4 3 7t7 3h225q206 0 206 -125q0 -34 -10.5 -60.5t-30 -38t-30.5 -11.5q-5 0 -5 -5t5 -5zM239 112h51q20 0 34.5 10t14.5 28t-13.5 27.5t-35.5 9.5h-51
v-75zM239 312h51q20 0 34.5 10t14.5 28t-13.5 27.5t-35.5 9.5h-51v-75z" />
    <glyph glyph-name="C" unicode="C" horiz-adv-x="553" 
d="M425 189l104 -65q3 -2 4.5 -6.5t0.5 -8.5q-11 -24 -41 -55t-77 -50t-104 -19q-58 0 -110 20t-90.5 56.5t-59.5 85t-21 103.5q0 54 21 102.5t59.5 83.5t90.5 54.5t110 19.5q28 0 60 -5t64 -19t57.5 -35.5t36.5 -41.5q1 -4 0 -8t-4 -6l-112 -70q-7 -4 -15 3
q-10 13 -33.5 22.5t-53.5 9.5q-24 0 -50 -11t-43 -38.5t-17 -60.5q0 -34 17 -62t43 -39.5t50 -11.5q33 0 59.5 14.5t39.5 33.5q1 1 4.5 3.5t9.5 0.5z" />
    <glyph glyph-name="D" unicode="D" horiz-adv-x="574" 
d="M237 500q95 0 163.5 -29.5t102.5 -86t34 -134.5q0 -79 -28 -136t-91.5 -85.5t-180.5 -28.5h-165q-4 0 -7 3t-3 7v480q0 4 3 7t7 3h165zM237 140h35q21 0 42.5 12.5t34.5 36.5t13 61q0 110 -100 110h-25v-220z" />
    <glyph glyph-name="E" unicode="E" horiz-adv-x="505" 
d="M455 0h-384q-4 0 -7 3t-3 7v480q0 4 3 7t7 3h384q4 0 7 -3t3 -7v-120q0 -4 -3 -7t-7 -3h-219v-50h155q4 0 7 -3t3 -7v-100q0 -10 -10 -10h-155v-50h219q4 0 7 -3t3 -7v-120q0 -4 -3 -7t-7 -3z" />
    <glyph glyph-name="F" unicode="F" horiz-adv-x="477" 
d="M221 0h-147q-10 0 -10 10v480q0 4 3 7t7 3h373q4 0 7 -3t3 -7v-120q0 -10 -10 -10h-216v-60h143q4 0 7 -3t3 -7v-120q0 -10 -10 -10h-143v-150q0 -10 -10 -10z" />
    <glyph glyph-name="G" unicode="G" horiz-adv-x="595" 
d="M364 263h169q4 0 7 -3t3 -7v-230q0 -10 -9 -14l-55 -21q-10 -2 -12 7l-13 51q-25 -34 -62 -47.5t-93 -13.5q-58 0 -107 20t-84 56t-53.5 85t-18.5 104q0 54 21 102.5t59.5 83.5t90.5 54.5t110 19.5q76 0 131 -33t76 -75q3 -8 -4 -14l-101 -63q-3 -2 -7.5 -1t-7.5 4
q-7 8 -23.5 17.5t-36 12t-27.5 2.5q-24 0 -50 -11t-43 -38.5t-17 -60.5q0 -47 30.5 -82.5t79.5 -35.5q35 0 58 9t33 21q11 13 13 29h-57q-4 0 -7 3t-3 7v52q0 4 3 7t7 3z" />
    <glyph glyph-name="H" unicode="H" horiz-adv-x="601" 
d="M64 10v480q0 4 3 7t7 3h155q4 0 7 -3t3 -7v-160h129v160q0 4 3 7t7 3h155q4 0 7 -3t3 -7v-480q0 -10 -10 -10h-155q-4 0 -7 3t-3 7v180h-129v-180q0 -4 -3 -7t-7 -3h-155q-10 0 -10 10z" />
    <glyph glyph-name="I" unicode="I" horiz-adv-x="302" 
d="M64 10v480q0 4 3 7t7 3h155q4 0 7 -3t3 -7v-480q0 -4 -3 -7t-7 -3h-155q-10 0 -10 10z" />
    <glyph glyph-name="J" unicode="J" horiz-adv-x="477" 
d="M-4 101q-2 3 -1 8t5 7l94 59q3 2 7.5 1t6.5 -5q11 -20 32.5 -34t46.5 -12q23 2 37.5 24.5t14.5 80.5v260q0 4 3 7t7 3h155q4 0 7 -3t3 -7v-317q0 -59 -27.5 -101t-74.5 -64.5t-114 -22.5q-60 0 -112.5 25t-89.5 91z" />
    <glyph glyph-name="K" unicode="K" horiz-adv-x="569" 
d="M224 0h-155q-10 0 -10 10v480q0 4 3 7t7 3h155q4 0 7 -3t3 -7v-165l115 167q1 1 5 4.5t11 3.5h165q4 0 5.5 -2.5t-0.5 -5.5l-150 -219q-5 -8 0 -17l177 -248q2 -3 1 -5.5t-5 -2.5h-175q-10 0 -16 8l-133 183v-181q0 -4 -3 -7t-7 -3z" />
    <glyph glyph-name="L" unicode="L" horiz-adv-x="468" 
d="M64 10v480q0 4 3 7t7 3h155q4 0 7 -3t3 -7v-350h199q4 0 7 -3t3 -7v-120q0 -10 -10 -10h-364q-4 0 -7 3t-3 7z" />
    <glyph glyph-name="M" unicode="M" horiz-adv-x="773" 
d="M202 0h-131q-4 0 -7 3t-3 7v480q0 4 3 7t7 3h182q4 0 8.5 -3t6.5 -6l119 -207l114 208q2 3 6.5 6t8.5 3h183q4 0 7 -3t3 -7v-481q0 -4 -3 -7t-7 -3h-133q-4 0 -7 3t-3 7v240l-124 -241q-1 -3 -6 -6t-9 -3h-64q-4 0 -8 3t-6 6l-127 237v-236q0 -4 -3 -7t-7 -3z" />
    <glyph glyph-name="N" unicode="N" horiz-adv-x="610" 
d="M204 0h-132q-10 0 -10 10v480q0 4 3 7t7 3h167q10 0 16 -8l139 -191v189q0 4 3 7t7 3h133q4 0 7 -3t3 -7v-480q0 -10 -10 -10h-149q-10 0 -16 8l-158 235v-233q0 -4 -3 -7t-7 -3z" />
    <glyph glyph-name="O" unicode="O" horiz-adv-x="622" 
d="M312 510q58 0 110 -19.5t90.5 -54.5t59.5 -83.5t21 -102.5q0 -55 -21 -103.5t-59.5 -85t-90.5 -56.5t-110 -20t-110 20t-90.5 56.5t-59.5 85t-21 103.5q0 54 21 102.5t59.5 83.5t90.5 54.5t110 19.5zM312 137q26 0 51.5 12t42.5 40t17 61t-17 60.5t-43.5 38.5t-50.5 11
t-50 -11t-42.5 -38.5t-16.5 -60.5q0 -34 16.5 -62t42.5 -39.5t50 -11.5z" />
    <glyph glyph-name="P" unicode="P" horiz-adv-x="531" 
d="M66 500h226q38 0 76.5 -11.5t69.5 -35t50 -59t19 -79.5t-19 -78t-50 -55.5t-69 -31.5t-77 -10h-60v-130q0 -4 -3 -7t-7 -3h-156q-4 0 -7 3t-3 7v480q0 4 3 7t7 3zM282 270q20 0 35 12t15 33t-15 33t-35 12h-50v-90h50z" />
    <glyph glyph-name="Q" unicode="Q" horiz-adv-x="619" 
d="M516 52l43 -47q3 -3 2.5 -7t-3.5 -7l-99 -80q-3 -2 -7 -1.5t-7 3.5l-60 74q-3 5 -13 3q-22 -5 -62 -5q-58 0 -110 20t-90.5 56.5t-59.5 85t-21 103.5q0 54 21 102.5t59.5 83.5t90.5 54.5t110 19.5t110 -19.5t90.5 -54.5t59.5 -83.5t21 -102.5q0 -35 -8 -72.5t-27.5 -68.5
t-37.5 -44q-4 -2 -4.5 -6t2.5 -7zM200 250q0 -34 17 -62t43 -39.5t50 -11.5t50 11.5t43 40t17 61.5t-17 60.5t-43 38.5t-50 11t-50 -11t-43 -38.5t-17 -60.5z" />
    <glyph glyph-name="R" unicode="R" horiz-adv-x="565" 
d="M495 142q17 -36 34 -132q1 -4 -2 -7t-7 -3h-170q-9 0 -11 10q-8 58 -17 86q-8 23 -18.5 33.5t-29.5 10.5h-35v-130q0 -10 -10 -10h-155q-4 0 -7 3t-3 7v480q0 4 3 7t7 3h226q36 0 74.5 -7.5t69.5 -26.5t49 -50.5t18 -75.5q0 -52 -15 -83.5t-34 -43.5t-30 -12q-5 0 -5 -5
t5 -5q6 0 20.5 -6.5t25.5 -18.5t17 -24zM290 270q20 0 35 12t15 33t-15 33t-35 12h-50v-90h50z" />
    <glyph glyph-name="S" unicode="S" horiz-adv-x="484" 
d="M30 89q-5 9 3 14l90 60q4 2 8.5 2t7.5 -3q17 -13 42.5 -24.5t49.5 -12.5q14 -1 27 6t9.5 21t-29.5 23q-34 11 -78 30t-67 36q-60 42 -60 119q0 28 15 55t44 48.5t71 34t92 12.5q37 0 76 -12t69.5 -40.5t42.5 -56.5q1 -4 -0.5 -8t-4.5 -6l-93 -54q-4 -2 -8.5 -1.5
t-6.5 3.5q-14 17 -37 29t-44 10t-26.5 -16t6.5 -25.5t29 -16.5q41 -12 87 -30t67 -37q24 -21 35.5 -44.5t11.5 -58.5q0 -24 -12.5 -52t-38 -52.5t-66.5 -40.5t-93 -16q-73 0 -132 31.5t-87 72.5z" />
    <glyph glyph-name="T" unicode="T" horiz-adv-x="556" 
d="M358 0h-155q-4 0 -7 3t-3 7v350h-159q-10 0 -10 10v120q0 4 3 7t7 3h484q4 0 7 -3t3 -7v-120q0 -10 -10 -10h-150v-350q0 -4 -3 -7t-7 -3z" />
    <glyph glyph-name="U" unicode="U" horiz-adv-x="610" 
d="M52 490q0 4 3 7t7 3h155q4 0 7 -3t3 -7v-265q0 -53 21 -76.5t60 -23.5t57 22t18 77v266q0 4 3 7t7 3h155q4 0 7 -3t3 -7v-274q0 -53 -27.5 -110t-84.5 -89t-137 -32q-119 0 -187 56t-70 174v275z" />
    <glyph glyph-name="V" unicode="V" horiz-adv-x="583" 
d="M213 15l-210 475q-3 10 6 10h172q10 0 14 -9l110 -235l90 234q1 4 5.5 7t7.5 3h163q4 0 5.5 -3t0.5 -7l-190 -475q-1 -4 -5.5 -7t-8.5 -3h-146q-4 0 -8.5 3t-5.5 7z" />
    <glyph glyph-name="W" unicode="W" horiz-adv-x="814" 
d="M348 0h-158q-9 0 -13 9l-153 481q-1 4 1 7t6 3h162q4 0 8 -3t5 -7l72 -219l59 219q3 10 13 10h127q10 0 13 -10l69 -219l59 219q1 4 4.5 7t7.5 3h154q4 0 6 -3t1 -7l-138 -480q-1 -4 -5 -7t-8 -3h-152q-10 0 -13 10l-59 200l-56 -200q-1 -4 -4.5 -7t-7.5 -3z" />
    <glyph glyph-name="X" unicode="X" horiz-adv-x="589" 
d="M232 0h-180q-4 0 -5.5 2.5t0.5 6.5l134 242q1 1 2 6t-2 11l-141 223q-2 3 -0.5 5.5t5.5 2.5h182q4 0 8.5 -3t5.5 -6l60 -115l52 116q4 9 14 9h178q4 0 5 -3t-1 -6l-136 -223q-2 -3 -2 -8t2 -9l152 -243q2 -3 1 -5.5t-5 -2.5h-188q-4 0 -8 3t-6 6l-60 114l-53 -114
q-1 -3 -5.5 -6t-8.5 -3z" />
    <glyph glyph-name="Y" unicode="Y" horiz-adv-x="577" 
d="M373 0h-153q-10 0 -10 10v179q0 11 -6 18l-212 285q-2 3 -1 5.5t5 2.5h193q3 0 8 -2.5t7 -5.5l92 -132l82 131q2 3 6.5 6t8.5 3h188q4 0 5 -2.5t-1 -5.5l-197 -285q-5 -7 -5 -18v-179q0 -4 -3 -7t-7 -3z" />
    <glyph glyph-name="Z" unicode="Z" horiz-adv-x="513" 
d="M460 0h-390q-4 0 -7.5 3t-4.5 6l-18 71q-2 10 4 18l208 262h-185q-10 0 -10 10v120q0 4 3 7t7 3h376q2 0 6 -2t7 -8l20 -80q3 -10 -3 -18l-194 -252h181q4 0 7 -3t3 -7v-120q0 -10 -10 -10z" />
    <glyph glyph-name="bracketleft" unicode="[" horiz-adv-x="265" 
d="M217 430h-50q-4 0 -7 -3t-3 -7v-340q0 -10 10 -10h50q4 0 7 -3t3 -7v-50q0 -4 -3 -7t-7 -3h-155q-10 0 -10 10v480q0 4 3 7t7 3h155q4 0 7 -3t3 -7v-50q0 -4 -3 -7t-7 -3z" />
    <glyph glyph-name="backslash" unicode="\" horiz-adv-x="398" 
d="M281 8l-279 483q-2 4 -0.5 6.5t5.5 2.5h95q4 0 8.5 -3t6.5 -6l279 -483q1 -3 -0.5 -5.5t-4.5 -2.5h-95q-4 0 -9 2.5t-6 5.5z" />
    <glyph glyph-name="bracketright" unicode="]" horiz-adv-x="275" 
d="M106 430h-50q-10 0 -10 10v50q0 4 3 7t7 3h155q4 0 7 -3t3 -7v-480q0 -4 -3 -7t-7 -3h-155q-10 0 -10 10v50q0 4 3 7t7 3h50q4 0 7 3t3 7v340q0 4 -3 7t-7 3z" />
    <glyph glyph-name="asciicircum" unicode="^" horiz-adv-x="513" 
d="M78 286l-30 45q-5 8 2 15l206 174q3 3 7.5 3t7.5 -3l205 -174q7 -7 2 -15l-30 -45q-2 -3 -6.5 -4t-7.5 1l-162 97q-4 2 -9 2t-8 -2l-163 -97q-3 -2 -7.5 -1t-6.5 4z" />
    <glyph glyph-name="underscore" unicode="_" horiz-adv-x="520" 
d="M510 -10v-85q0 -4 -3 -7t-7 -3h-480q-10 0 -10 10v85q0 4 3 7t7 3h480q4 0 7 -3t3 -7z" />
    <glyph glyph-name="grave" unicode="`" horiz-adv-x="305" 
d="M253 616l-42 -73q-5 -8 -14 -3l-126 91q-8 5 -3 14l25 44q1 3 5.5 4t8.5 0l142 -64q4 -1 5 -5.5t-1 -7.5z" />
    <glyph glyph-name="a" unicode="a" horiz-adv-x="609" 
d="M419 491l179 -482q1 -4 -1 -6.5t-6 -2.5h-172q-10 0 -14 9l-22 61q-1 4 -5.5 7t-7.5 3h-134q-3 0 -7.5 -3t-5.5 -7l-20 -61q-4 -9 -13 -9h-172q-4 0 -5.5 3t-0.5 6l170 482q4 9 14 9h209q10 0 14 -9zM350 201l-47 138l-43 -138h90z" />
    <glyph glyph-name="b" unicode="b" horiz-adv-x="568" 
d="M434 255q12 0 32 -10t32.5 -24.5t20 -34.5t7.5 -46q0 -44 -19 -76t-65.5 -48t-142.5 -16h-225q-4 0 -7 3t-3 7v480q0 4 3 7t7 3h225q206 0 206 -125q0 -34 -10.5 -60.5t-30 -38t-30.5 -11.5q-5 0 -5 -5t5 -5zM239 112h51q20 0 34.5 10t14.5 28t-13.5 27.5t-35.5 9.5h-51
v-75zM239 312h51q20 0 34.5 10t14.5 28t-13.5 27.5t-35.5 9.5h-51v-75z" />
    <glyph glyph-name="c" unicode="c" horiz-adv-x="553" 
d="M425 189l104 -65q3 -2 4.5 -6.5t0.5 -8.5q-11 -24 -41 -55t-77 -50t-104 -19q-58 0 -110 20t-90.5 56.5t-59.5 85t-21 103.5q0 54 21 102.5t59.5 83.5t90.5 54.5t110 19.5q28 0 60 -5t64 -19t57.5 -35.5t36.5 -41.5q1 -4 0 -8t-4 -6l-112 -70q-7 -4 -15 3
q-10 13 -33.5 22.5t-53.5 9.5q-24 0 -50 -11t-43 -38.5t-17 -60.5q0 -34 17 -62t43 -39.5t50 -11.5q33 0 59.5 14.5t39.5 33.5q1 1 4.5 3.5t9.5 0.5z" />
    <glyph glyph-name="d" unicode="d" horiz-adv-x="574" 
d="M237 500q95 0 163.5 -29.5t102.5 -86t34 -134.5q0 -79 -28 -136t-91.5 -85.5t-180.5 -28.5h-165q-4 0 -7 3t-3 7v480q0 4 3 7t7 3h165zM237 140h35q21 0 42.5 12.5t34.5 36.5t13 61q0 110 -100 110h-25v-220z" />
    <glyph glyph-name="e" unicode="e" horiz-adv-x="505" 
d="M455 0h-384q-4 0 -7 3t-3 7v480q0 4 3 7t7 3h384q4 0 7 -3t3 -7v-120q0 -4 -3 -7t-7 -3h-219v-50h155q4 0 7 -3t3 -7v-100q0 -10 -10 -10h-155v-50h219q4 0 7 -3t3 -7v-120q0 -4 -3 -7t-7 -3z" />
    <glyph glyph-name="f" unicode="f" horiz-adv-x="477" 
d="M221 0h-147q-10 0 -10 10v480q0 4 3 7t7 3h373q4 0 7 -3t3 -7v-120q0 -10 -10 -10h-216v-60h143q4 0 7 -3t3 -7v-120q0 -10 -10 -10h-143v-150q0 -10 -10 -10z" />
    <glyph glyph-name="g" unicode="g" horiz-adv-x="595" 
d="M364 263h169q4 0 7 -3t3 -7v-230q0 -10 -9 -14l-55 -21q-10 -2 -12 7l-13 51q-25 -34 -62 -47.5t-93 -13.5q-58 0 -107 20t-84 56t-53.5 85t-18.5 104q0 54 21 102.5t59.5 83.5t90.5 54.5t110 19.5q76 0 131 -33t76 -75q3 -8 -4 -14l-101 -63q-3 -2 -7.5 -1t-7.5 4
q-7 8 -23.5 17.5t-36 12t-27.5 2.5q-24 0 -50 -11t-43 -38.5t-17 -60.5q0 -47 30.5 -82.5t79.5 -35.5q35 0 58 9t33 21q11 13 13 29h-57q-4 0 -7 3t-3 7v52q0 4 3 7t7 3z" />
    <glyph glyph-name="h" unicode="h" horiz-adv-x="601" 
d="M64 10v480q0 4 3 7t7 3h155q4 0 7 -3t3 -7v-160h129v160q0 4 3 7t7 3h155q4 0 7 -3t3 -7v-480q0 -10 -10 -10h-155q-4 0 -7 3t-3 7v180h-129v-180q0 -4 -3 -7t-7 -3h-155q-10 0 -10 10z" />
    <glyph glyph-name="i" unicode="i" horiz-adv-x="302" 
d="M64 10v480q0 4 3 7t7 3h155q4 0 7 -3t3 -7v-480q0 -4 -3 -7t-7 -3h-155q-10 0 -10 10z" />
    <glyph glyph-name="j" unicode="j" horiz-adv-x="477" 
d="M-4 101q-2 3 -1 8t5 7l94 59q3 2 7.5 1t6.5 -5q11 -20 32.5 -34t46.5 -12q23 2 37.5 24.5t14.5 80.5v260q0 4 3 7t7 3h155q4 0 7 -3t3 -7v-317q0 -59 -27.5 -101t-74.5 -64.5t-114 -22.5q-60 0 -112.5 25t-89.5 91z" />
    <glyph glyph-name="k" unicode="k" horiz-adv-x="569" 
d="M224 0h-155q-10 0 -10 10v480q0 4 3 7t7 3h155q4 0 7 -3t3 -7v-165l115 167q1 1 5 4.5t11 3.5h165q4 0 5.5 -2.5t-0.5 -5.5l-150 -219q-5 -8 0 -17l177 -248q2 -3 1 -5.5t-5 -2.5h-175q-10 0 -16 8l-133 183v-181q0 -4 -3 -7t-7 -3z" />
    <glyph glyph-name="l" unicode="l" horiz-adv-x="468" 
d="M64 10v480q0 4 3 7t7 3h155q4 0 7 -3t3 -7v-350h199q4 0 7 -3t3 -7v-120q0 -10 -10 -10h-364q-4 0 -7 3t-3 7z" />
    <glyph glyph-name="m" unicode="m" horiz-adv-x="773" 
d="M202 0h-131q-4 0 -7 3t-3 7v480q0 4 3 7t7 3h182q4 0 8.5 -3t6.5 -6l119 -207l114 208q2 3 6.5 6t8.5 3h183q4 0 7 -3t3 -7v-481q0 -4 -3 -7t-7 -3h-133q-4 0 -7 3t-3 7v240l-124 -241q-1 -3 -6 -6t-9 -3h-64q-4 0 -8 3t-6 6l-127 237v-236q0 -4 -3 -7t-7 -3z" />
    <glyph glyph-name="n" unicode="n" horiz-adv-x="610" 
d="M204 0h-132q-10 0 -10 10v480q0 4 3 7t7 3h167q10 0 16 -8l139 -191v189q0 4 3 7t7 3h133q4 0 7 -3t3 -7v-480q0 -10 -10 -10h-149q-10 0 -16 8l-158 235v-233q0 -4 -3 -7t-7 -3z" />
    <glyph glyph-name="o" unicode="o" horiz-adv-x="622" 
d="M312 510q58 0 110 -19.5t90.5 -54.5t59.5 -83.5t21 -102.5q0 -55 -21 -103.5t-59.5 -85t-90.5 -56.5t-110 -20t-110 20t-90.5 56.5t-59.5 85t-21 103.5q0 54 21 102.5t59.5 83.5t90.5 54.5t110 19.5zM312 137q26 0 51.5 12t42.5 40t17 61t-17 60.5t-43.5 38.5t-50.5 11
t-50 -11t-42.5 -38.5t-16.5 -60.5q0 -34 16.5 -62t42.5 -39.5t50 -11.5z" />
    <glyph glyph-name="p" unicode="p" horiz-adv-x="531" 
d="M66 500h226q38 0 76.5 -11.5t69.5 -35t50 -59t19 -79.5t-19 -78t-50 -55.5t-69 -31.5t-77 -10h-60v-130q0 -4 -3 -7t-7 -3h-156q-4 0 -7 3t-3 7v480q0 4 3 7t7 3zM282 270q20 0 35 12t15 33t-15 33t-35 12h-50v-90h50z" />
    <glyph glyph-name="q" unicode="q" horiz-adv-x="619" 
d="M516 52l43 -47q3 -3 2.5 -7t-3.5 -7l-99 -80q-3 -2 -7 -1.5t-7 3.5l-60 74q-3 5 -13 3q-22 -5 -62 -5q-58 0 -110 20t-90.5 56.5t-59.5 85t-21 103.5q0 54 21 102.5t59.5 83.5t90.5 54.5t110 19.5t110 -19.5t90.5 -54.5t59.5 -83.5t21 -102.5q0 -35 -8 -72.5t-27.5 -68.5
t-37.5 -44q-4 -2 -4.5 -6t2.5 -7zM200 250q0 -34 17 -62t43 -39.5t50 -11.5t50 11.5t43 40t17 61.5t-17 60.5t-43 38.5t-50 11t-50 -11t-43 -38.5t-17 -60.5z" />
    <glyph glyph-name="r" unicode="r" horiz-adv-x="565" 
d="M495 142q17 -36 34 -132q1 -4 -2 -7t-7 -3h-170q-9 0 -11 10q-8 58 -17 86q-8 23 -18.5 33.5t-29.5 10.5h-35v-130q0 -10 -10 -10h-155q-4 0 -7 3t-3 7v480q0 4 3 7t7 3h226q36 0 74.5 -7.5t69.5 -26.5t49 -50.5t18 -75.5q0 -52 -15 -83.5t-34 -43.5t-30 -12q-5 0 -5 -5
t5 -5q6 0 20.5 -6.5t25.5 -18.5t17 -24zM290 270q20 0 35 12t15 33t-15 33t-35 12h-50v-90h50z" />
    <glyph glyph-name="s" unicode="s" horiz-adv-x="484" 
d="M30 89q-5 9 3 14l90 60q4 2 8.5 2t7.5 -3q17 -13 42.5 -24.5t49.5 -12.5q14 -1 27 6t9.5 21t-29.5 23q-34 11 -78 30t-67 36q-60 42 -60 119q0 28 15 55t44 48.5t71 34t92 12.5q37 0 76 -12t69.5 -40.5t42.5 -56.5q1 -4 -0.5 -8t-4.5 -6l-93 -54q-4 -2 -8.5 -1.5
t-6.5 3.5q-14 17 -37 29t-44 10t-26.5 -16t6.5 -25.5t29 -16.5q41 -12 87 -30t67 -37q24 -21 35.5 -44.5t11.5 -58.5q0 -24 -12.5 -52t-38 -52.5t-66.5 -40.5t-93 -16q-73 0 -132 31.5t-87 72.5z" />
    <glyph glyph-name="t" unicode="t" horiz-adv-x="556" 
d="M358 0h-155q-4 0 -7 3t-3 7v350h-159q-10 0 -10 10v120q0 4 3 7t7 3h484q4 0 7 -3t3 -7v-120q0 -10 -10 -10h-150v-350q0 -4 -3 -7t-7 -3z" />
    <glyph glyph-name="u" unicode="u" horiz-adv-x="610" 
d="M52 490q0 4 3 7t7 3h155q4 0 7 -3t3 -7v-265q0 -53 21 -76.5t60 -23.5t57 22t18 77v266q0 4 3 7t7 3h155q4 0 7 -3t3 -7v-274q0 -53 -27.5 -110t-84.5 -89t-137 -32q-119 0 -187 56t-70 174v275z" />
    <glyph glyph-name="v" unicode="v" horiz-adv-x="583" 
d="M213 15l-210 475q-3 10 6 10h172q10 0 14 -9l110 -235l90 234q1 4 5.5 7t7.5 3h163q4 0 5.5 -3t0.5 -7l-190 -475q-1 -4 -5.5 -7t-8.5 -3h-146q-4 0 -8.5 3t-5.5 7z" />
    <glyph glyph-name="w" unicode="w" horiz-adv-x="814" 
d="M348 0h-158q-9 0 -13 9l-153 481q-1 4 1 7t6 3h162q4 0 8 -3t5 -7l72 -219l59 219q3 10 13 10h127q10 0 13 -10l69 -219l59 219q1 4 4.5 7t7.5 3h154q4 0 6 -3t1 -7l-138 -480q-1 -4 -5 -7t-8 -3h-152q-10 0 -13 10l-59 200l-56 -200q-1 -4 -4.5 -7t-7.5 -3z" />
    <glyph glyph-name="x" unicode="x" horiz-adv-x="589" 
d="M232 0h-180q-4 0 -5.5 2.5t0.5 6.5l134 242q1 1 2 6t-2 11l-141 223q-2 3 -0.5 5.5t5.5 2.5h182q4 0 8.5 -3t5.5 -6l60 -115l52 116q4 9 14 9h178q4 0 5 -3t-1 -6l-136 -223q-2 -3 -2 -8t2 -9l152 -243q2 -3 1 -5.5t-5 -2.5h-188q-4 0 -8 3t-6 6l-60 114l-53 -114
q-1 -3 -5.5 -6t-8.5 -3z" />
    <glyph glyph-name="y" unicode="y" horiz-adv-x="577" 
d="M373 0h-153q-10 0 -10 10v179q0 11 -6 18l-212 285q-2 3 -1 5.5t5 2.5h193q3 0 8 -2.5t7 -5.5l92 -132l82 131q2 3 6.5 6t8.5 3h188q4 0 5 -2.5t-1 -5.5l-197 -285q-5 -7 -5 -18v-179q0 -4 -3 -7t-7 -3z" />
    <glyph glyph-name="z" unicode="z" horiz-adv-x="513" 
d="M460 0h-390q-4 0 -7.5 3t-4.5 6l-18 71q-2 10 4 18l208 262h-185q-10 0 -10 10v120q0 4 3 7t7 3h376q2 0 6 -2t7 -8l20 -80q3 -10 -3 -18l-194 -252h181q4 0 7 -3t3 -7v-120q0 -10 -10 -10z" />
    <glyph glyph-name="braceleft" unicode="{" horiz-adv-x="272" 
d="M181 359q0 -36 -16 -65t-36 -42q-4 -1 -4 -4.5t4 -5.5q20 -12 36 -41t16 -65v-33q0 -26 14.5 -39t32.5 -12q4 1 7 -2t3 -7v-48q0 -4 -3 -7t-7 -3h-5q-69 1 -97 32t-28 86v33q0 23 -15 39t-34 22q-3 1 -6.5 5t-3.5 8v80q0 4 3 7.5t7 4.5q19 4 34 19t15 38v33q0 28 9 54.5
t36 44.5t78 19h7q4 0 7 -3t3 -7v-49q0 -3 -3 -6t-7 -3q-18 1 -30 -9t-14.5 -21t-2.5 -20v-33z" />
    <glyph glyph-name="bar" unicode="|" horiz-adv-x="236" 
d="M169 714v-954q0 -4 -3 -7t-7 -3h-80q-4 0 -7 3t-3 7v954q0 4 3 7t7 3h80q4 0 7 -3t3 -7z" />
    <glyph glyph-name="braceright" unicode="}" horiz-adv-x="269" 
d="M97 359v33q0 27 -14 39.5t-33 10.5q-4 0 -7 2.5t-3 6.5v49q0 4 3 7t7 3h6q124 -2 124 -118v-33q0 -23 14.5 -38t33.5 -19q4 -1 7 -4.5t3 -7.5v-80q0 -10 -10 -13q-19 -6 -33.5 -22t-14.5 -39v-33q0 -55 -28 -86t-98 -32h-5q-4 0 -6.5 3t-2.5 7v48q0 4 3 7t7 2
q18 -1 32.5 12t14.5 39v33q0 36 16 65t36 41q4 2 4 5.5t-4 4.5q-20 13 -36 42t-16 65z" />
    <glyph glyph-name="asciitilde" unicode="~" horiz-adv-x="589" 
d="M381 164q-49 -2 -96.5 32t-61.5 40t-27 5q-24 -2 -42.5 -13.5t-26.5 -25.5q-1 -4 -5.5 -5t-7.5 1l-56 34q-4 2 -5 6.5t1 7.5q24 42 66.5 79t88.5 40q51 3 94.5 -31t54.5 -39.5t23 -5.5q24 0 42 11t25 25q1 4 5 5t7 -1l57 -34q3 -1 4 -5.5t0 -8.5q-19 -42 -56.5 -78
t-83.5 -39z" />
    <glyph glyph-name="uni00A0" unicode="&#xa0;" horiz-adv-x="320" 
 />
    <glyph glyph-name="exclamdown" unicode="&#xa1;" horiz-adv-x="278" 
d="M145 370q-29 0 -48 19t-19 45q0 27 19 46.5t48 19.5t48.5 -19t19.5 -47q0 -26 -19.5 -45t-48.5 -19zM103 312h85q9 0 11 -10l29 -300q1 -4 -2 -7t-7 -3h-148q-3 0 -6 3t-3 7l30 300q0 4 3.5 7t7.5 3z" />
    <glyph glyph-name="cent" unicode="&#xa2;" horiz-adv-x="429" 
d="M321 156l67 -44q3 -2 4 -7t0 -8q-10 -22 -32.5 -41.5t-53 -31.5t-70.5 -12h-4q-3 1 -6 -2t-4 -7l-2 -8q-2 -10 -11 -10h-24q-4 0 -6.5 3t-1.5 7l3 14q1 4 -1 7.5t-6 4.5l-4 2q-27 9 -58 30.5t-52 61t-21 84.5q0 49 25.5 93.5t73 68t99.5 23.5q11 0 13 9l4 20q1 4 4.5 7
t7.5 3h23q4 0 6.5 -3t1.5 -7l-4 -26q-1 -8 5 -12q34 -9 58.5 -26.5t33.5 -33.5q2 -3 1 -8t-4 -7l-63 -49q-5 -4 -15 1l-38 18l-26 -149q10 0 21 3.5t19.5 9t13 10l9.5 9.5q2 3 6.5 4t7.5 -1zM228 276q-31 -1 -50 -24.5t-19 -59.5q0 -21 11.5 -40t30.5 -24z" />
    <glyph glyph-name="sterling" unicode="&#xa3;" horiz-adv-x="499" 
d="M387 125l66 -40q3 -2 4.5 -6t0.5 -8q-14 -33 -43 -59.5t-64 -26.5q-24 0 -44 5t-49 18.5t-47 13.5q-14 0 -39 -6t-51 -21q-3 -2 -7.5 -1t-5.5 5l-41 94q-2 4 -0.5 9t4.5 7q56 36 56 64h-41q-4 0 -7 3t-3 7v49q0 10 10 10h42q-44 64 -35 129q6 37 32 66.5t70 43t93 13.5
q26 0 55.5 -10t58.5 -35t43 -48q1 -1 1.5 -5.5t-4.5 -8.5l-89 -52q-9 -5 -14 3q-10 14 -25.5 24.5t-30.5 10.5q-21 0 -32.5 -12.5t-7.5 -32.5q1 -6 14.5 -26.5t19.5 -34.5t6 -25h37q4 0 7 -3t3 -7v-49q0 -4 -3 -7t-7 -3h-40q-9 -13 -31.5 -33t-54.5 -36q-6 -2 -5 -5t7 1
q42 24 70 24q11 0 34 -7.5t32 -7.5q7 0 18 3.5t21 11.5q3 3 7.5 3t8.5 -2z" />
    <glyph glyph-name="currency" unicode="&#xa4;" horiz-adv-x="564" 
d="M496 250q0 -25 -7 -51.5t-18 -47.5q-4 -10 2 -17l33 -32q3 -3 3 -7.5t-3 -7.5l-60 -60q-3 -2 -7.5 -2t-7.5 2l-32 33q-7 7 -15 3q-49 -26 -101 -26q-53 0 -100 25q-9 5 -16 -2l-32 -33q-7 -5 -14 0l-60 60q-3 3 -3 7.5t3 7.5l32 32q2 2 3.5 6.5t0.5 6.5q-27 54 -27 103
q0 52 26 101q3 9 -3 15l-32 32q-3 3 -3 7.5t3 6.5l60 60q3 3 7 3t7 -3l32 -32q6 -6 17 -2q47 25 99 25t100 -25q3 -2 8 -1.5t8 3.5l32 32q3 3 7.5 3t7.5 -3l60 -60q3 -2 3 -6.5t-3 -7.5l-33 -32q-3 -3 -3.5 -7t0.5 -7q27 -56 26 -102zM283 142q21 0 46 10.5t43.5 38
t18.5 59.5t-18.5 59t-43.5 38t-46 11q-20 0 -45.5 -11t-44 -38t-18.5 -59q0 -21 11 -46t38 -43.5t59 -18.5z" />
    <glyph glyph-name="yen" unicode="&#xa5;" horiz-adv-x="578" 
d="M544 469l-137 -210q-2 -3 -0.5 -5.5t5.5 -2.5h50q4 0 7 -3t3 -7v-57q0 -4 -3 -7t-7 -3h-75q-4 0 -7 -3t-3 -7v-9q0 -4 3 -7t7 -3h75q4 0 7 -3t3 -7v-57q0 -4 -3 -7t-7 -3h-75q-4 0 -7 -3t-3 -7v-48q0 -10 -10 -10h-142q-10 0 -10 10v48q0 4 -3 7t-7 3h-90q-4 0 -7 3t-3 7
v57q0 4 3 7t7 3h90q4 0 7 3t3 7v9q0 4 -3 7t-7 3h-90q-4 0 -7 3t-3 7v57q0 4 3 7t7 3h63q4 0 5.5 2.5t-0.5 5.5l-149 210q-2 3 -1 5.5t5 2.5h161q10 0 15 -8l76 -117q2 -3 5 -2.5t5 3.5l68 116q1 4 6.5 6t8.5 2h157q4 0 5 -2.5t-1 -5.5z" />
    <glyph glyph-name="brokenbar" unicode="&#xa6;" horiz-adv-x="209" 
d="M66 724h80q4 0 7 -3t3 -7v-405q0 -4 -3 -7t-7 -3h-80q-4 0 -7 3t-3 7v405q0 4 3 7t7 3zM56 -240v404q0 10 10 10h80q4 0 7 -3t3 -7v-404q0 -4 -3 -7t-7 -3h-80q-4 0 -7 3t-3 7z" />
    <glyph glyph-name="section" unicode="&#xa7;" horiz-adv-x="507" 
d="M461 185q0 -21 -9.5 -43.5t-26.5 -36.5t-25 -17q5 -4 7.5 -6.5l6 -6t7 -8t6.5 -9.5t6 -11t6 -15.5t2 -21.5q-1 -42 -24 -74.5t-63 -50.5t-99 -18q-66 0 -120.5 30.5t-82.5 69.5l95 63q17 -14 41.5 -25.5t46.5 -12.5q19 -1 28.5 9t1 20t-23.5 15q-31 10 -69.5 27t-59.5 32
q-54 39 -53 105q0 16 8 32t17.5 27t16 17.5t15.5 14.5q-13 12 -23.5 35.5t-10.5 49.5q0 18 9 39.5t31.5 42t62 36t94.5 15.5q33 0 68 -11.5t63.5 -39t39.5 -54.5l-99 -57q-15 17 -36.5 30t-40.5 11q-16 -2 -22 -11t0.5 -21.5t29.5 -19.5q35 -10 76.5 -26t60.5 -33
q21 -19 31.5 -40t10.5 -52zM320 168q7 18 -5 33.5t-35 22.5q-23 8 -42.5 2t-26.5 -23q-6 -16 8 -34t34 -24q22 -6 38.5 -1t22 13t6.5 11z" />
    <glyph glyph-name="dieresis" unicode="&#xa8;" horiz-adv-x="438" 
d="M134 700q29 0 48.5 -19t19.5 -45q0 -28 -19.5 -47t-48.5 -19t-48 19.5t-19 46.5q0 26 19 45t48 19zM320 700q29 0 48 -19t19 -45q0 -28 -19 -47t-48 -19t-48.5 20t-19.5 46t19.5 45t48.5 19z" />
    <glyph glyph-name="copyright" unicode="&#xa9;" horiz-adv-x="622" 
d="M324 177q21 0 37 8t23 19q1 1 4.5 3.5t9.5 0.5l60 -37q3 -2 4 -7t0 -8q-8 -17 -27.5 -35t-47 -28.5t-63.5 -10.5q-75 0 -126 48t-51 118q0 25 9 53t30.5 52.5t56.5 41.5t81 17q26 0 51 -6t49 -21t35 -34q2 -3 1 -7.5t-4 -6.5l-65 -39q-3 -2 -7.5 -1.5t-6.5 3.5
q-5 7 -19.5 12t-33.5 5q-31 0 -50 -20t-19 -49t19 -50t50 -21zM316 510q52 0 100.5 -20.5t84.5 -56.5t56.5 -84t20.5 -101t-20.5 -101t-56.5 -84.5t-84.5 -57t-100.5 -20.5q-53 0 -101 20.5t-84.5 57t-57 84.5t-20.5 101t20.5 101t57 84t84.5 56.5t101 20.5zM316 10
q35 0 74.5 12.5t80 46t61.5 83t21 96.5t-18.5 91t-51.5 76.5t-76.5 51t-90.5 18.5q-48 0 -91.5 -18.5t-76.5 -51t-51.5 -76.5t-18.5 -91q0 -48 18.5 -91.5t51.5 -76.5t76.5 -51.5t91.5 -18.5z" />
    <glyph glyph-name="ordfeminine" unicode="&#xaa;" horiz-adv-x="321" 
d="M214 500l71 -191h-83l-11 31h-59l-10 -31h-83l68 191h107zM145 386h34l-18 55z" />
    <glyph glyph-name="guillemotleft" unicode="&#xab;" horiz-adv-x="532" 
d="M488 421l-97 -162q-5 -9 0 -18l97 -162q2 -3 1 -7.5t-4 -6.5l-45 -30q-8 -5 -15 2l-174 205q-6 8 0 16l174 205q7 7 15 2l45 -30q3 -2 4 -6.5t-1 -7.5zM269 421l-97 -162q-5 -9 0 -18l97 -162q2 -3 1 -7.5t-4 -6.5l-45 -30q-8 -5 -15 2l-174 205q-6 8 0 16l174 205
q7 7 15 2l45 -30q3 -2 4 -6.5t-1 -7.5z" />
    <glyph glyph-name="logicalnot" unicode="&#xac;" horiz-adv-x="414" 
d="M367 284v-155q0 -4 -3 -7t-7 -3h-68q-4 0 -7 3t-3 7v77h-226q-4 0 -7 3t-3 7v68q0 4 3 7t7 3h304q4 0 7 -3t3 -7z" />
    <glyph glyph-name="uni00AD" unicode="&#xad;" horiz-adv-x="270" 
d="M260 310v-85q0 -10 -10 -10h-230q-4 0 -7 3t-3 7v85q0 4 3 7t7 3h230q4 0 7 -3t3 -7z" />
    <glyph glyph-name="registered" unicode="&#xae;" horiz-adv-x="294" 
d="M149 530q32 0 59 -18.5t38 -43.5t11 -46t-11 -46t-38 -43.5t-59 -18.5t-59.5 18.5t-38.5 43.5t-11 46t11 46t38.5 43.5t59.5 18.5zM149 321q19 0 42.5 10t41 35.5t17.5 55.5t-17.5 55.5t-41 35.5t-42.5 10t-43 -10t-41 -35.5t-17 -55.5q0 -19 10 -42.5t35.5 -41
t55.5 -17.5zM187 410q11 -3 15 -12q5 -9 9 -35h-46q-2 17 -5 24q-3 10 -11 10h-9v-34h-42v122h57q21 0 36 -9.5t15 -29.5q0 -14 -6 -23t-13 -11v-2zM153 429q4 0 8 3t4 8t-4 8t-8 3h-13v-22h13z" />
    <glyph glyph-name="macron" unicode="&#xaf;" horiz-adv-x="432" 
d="M384 641v-50q0 -4 -3 -7t-7 -3h-320q-10 0 -10 10v50q0 4 3 7t7 3h320q4 0 7 -3t3 -7z" />
    <glyph glyph-name="degree" unicode="&#xb0;" horiz-adv-x="248" 
d="M128 340q-35 0 -61.5 26.5t-26.5 61.5q0 17 9 37t31 35t48 15q35 0 61 -26t26 -61q0 -26 -15 -48t-35 -31t-37 -9zM128 480q-22 0 -37.5 -15.5t-15.5 -36.5t16 -37t37 -16t36.5 15.5t15.5 37.5q0 21 -15.5 36.5t-36.5 15.5z" />
    <glyph glyph-name="plusminus" unicode="&#xb1;" horiz-adv-x="495" 
d="M200 133v126h-131q-4 0 -7 3t-3 7v85q0 4 3 7t7 3h131v126q0 4 3 7t7 3h85q4 0 7 -3t3 -7v-126h130q4 0 7 -3t3 -7v-85q0 -10 -10 -10h-130v-126q0 -4 -3 -7t-7 -3h-85q-4 0 -7 3t-3 7zM62 87h380q10 0 10 -10v-67q0 -10 -10 -10h-380q-4 0 -7 3t-3 7v67q0 4 3 7t7 3z
" />
    <glyph glyph-name="uni00B2" unicode="&#xb2;" horiz-adv-x="233" 
d="M89 429l-52 18q5 14 20 29.5t32.5 21.5t34.5 6q40 0 60.5 -20t20.5 -50q0 -15 -11 -31t-30 -27t-27 -13h68v-54h-147l-7 40q48 36 65 52q14 14 17 28t-11 21q-6 3 -15.5 -0.5t-17.5 -20.5z" />
    <glyph glyph-name="uni00B3" unicode="&#xb3;" horiz-adv-x="231" 
d="M84 436l-49 17q5 20 27 35.5t56 15.5q20 0 38 -5.5t27.5 -19t9.5 -30.5q0 -9 -5 -21t-17 -20q16 -8 24 -19t8 -28q0 -31 -22 -44.5t-63 -13.5q-32 0 -55 14t-31 32l49 18q3 -4 10.5 -10t16.5 -6q11 0 18.5 6t6.5 16q-1 5 -7.5 10t-22.5 5v31q10 1 18 5t9 12q1 10 -6 16.5
t-18 4.5q-5 -1 -11.5 -6.5t-10.5 -14.5z" />
    <glyph glyph-name="acute" unicode="&#xb4;" horiz-adv-x="308" 
d="M113 543l-42 73q-2 3 -1 7.5t5 5.5l142 64q8 3 14 -4l25 -44q1 -1 1.5 -5.5t-4.5 -8.5l-127 -91q-3 -2 -7 -1t-6 4z" />
    <glyph glyph-name="uni00B5" unicode="&#xb5;" horiz-adv-x="444" 
d="M304 310h68q4 0 7 -3t3 -7v-290q0 -4 -3 -7t-7 -3h-68q-4 0 -7 3t-3 7v40q-9 -22 -27 -40.5t-43 -23.5q-18 -3 -39 1t-30 13v-115q0 -4 -3 -7t-7 -3h-68q-4 0 -7 3t-3 7v415q0 4 3 7t7 3h68q4 0 7 -3t3 -7v-201q0 -18 19 -32.5t42 -10.5q21 4 41 23t28.5 42.5t8.5 43.5
v135q0 4 3 7t7 3z" />
    <glyph glyph-name="paragraph" unicode="&#xb6;" horiz-adv-x="489" 
d="M40 354q0 48 24.5 80.5t63.5 49t75 16.5h223v-625h-76v551h-66v-551h-81v314q-25 0 -52.5 7t-51.5 25t-41.5 51t-17.5 82z" />
    <glyph glyph-name="periodcentered" unicode="&#xb7;" horiz-adv-x="242" 
d="M124 314q29 0 48.5 -19t19.5 -45q0 -28 -19.5 -47t-48.5 -19t-48 19.5t-19 46.5q0 26 19 45t48 19z" />
    <glyph glyph-name="cedilla" unicode="&#xb8;" horiz-adv-x="338" 
d="M93 -169q-2 2 -1.5 6t1.5 6l20 21q1 2 5 2t6 -1q4 -3 14.5 -7t22.5 -3q14 3 22 12.5t7 21.5q-2 11 -11.5 18.5t-21.5 4.5q-14 -2 -19 -9q-1 -3 -4.5 -4t-5.5 2l-20 12q-5 5 -4 11l40 102q2 6 10 4l26 -13q2 -1 4 -4.5t1 -6.5l-20 -51q12 4 29 4t31 -7q23 -11 32 -39
t-2 -58q-5 -14 -19.5 -28t-39.5 -20.5t-47 -3.5q-36 6 -56 28z" />
    <glyph glyph-name="uni00B9" unicode="&#xb9;" horiz-adv-x="208" 
d="M100 500h65v-191h-80v130h-40v30q24 0 38 8q4 2 9.5 8.5t7.5 14.5z" />
    <glyph glyph-name="ordmasculine" unicode="&#xba;" horiz-adv-x="298" 
d="M150 505q21 0 46.5 -9.5t43 -34.5t17.5 -56q0 -20 -10.5 -43.5t-37 -40.5t-59.5 -17q-21 0 -46 10t-43 35t-18 56q0 20 10.5 43.5t37 40t59.5 16.5zM150 371q16 0 25 11t9 23q0 13 -9 23.5t-25 10.5t-25 -10.5t-9 -23.5t9 -23.5t25 -10.5z" />
    <glyph glyph-name="guillemotright" unicode="&#xbb;" horiz-adv-x="529" 
d="M103 463l175 -205q2 -3 2 -8t-2 -8l-175 -205q-2 -3 -6.5 -3.5t-7.5 1.5l-45 30q-3 2 -4 6.5t1 7.5l96 162q5 9 0 18l-96 162q-2 3 -1 7.5t4 6.5l45 30q3 2 7.5 1.5t6.5 -3.5zM323 463l174 -205q6 -8 0 -16l-174 -205q-3 -3 -7.5 -3.5t-7.5 1.5l-45 30q-3 2 -4 6.5t1 7.5
l96 162q5 9 0 18l-96 162q-2 3 -1 7.5t4 6.5l45 30q3 2 7.5 1.5t7.5 -3.5z" />
    <glyph glyph-name="onequarter" unicode="&#xbc;" horiz-adv-x="507" 
d="M100 500h65v-191h-80v130h-40v30q24 0 38 8q4 2 9.5 8.5t7.5 14.5zM477 491l-346 -483q-2 -3 -7 -5.5t-8 -2.5h-62q-4 0 -5.5 2.5t0.5 5.5l346 483q1 3 6 6t9 3h62q3 0 4.5 -2.5t0.5 -6.5zM450 77h20v-47h-20v-30h-60v30h-74l-23 43l73 118h84v-114zM390 77v62l-38 -62
h38z" />
    <glyph glyph-name="onehalf" unicode="&#xbd;" horiz-adv-x="532" 
d="M469 491l-346 -483q-2 -3 -7 -5.5t-8 -2.5h-62q-4 0 -5.5 2.5t0.5 5.5l346 483q1 3 6 6t9 3h62q3 0 4.5 -2.5t0.5 -6.5zM377 120l-52 18q5 14 20 29.5t32.5 21.5t34.5 6q40 0 60.5 -20t20.5 -50q0 -15 -11 -31t-30 -27t-27 -13h68v-54h-147l-7 40q48 36 65 52
q14 14 17 28t-11 21q-6 3 -15.5 -0.5t-17.5 -20.5zM100 500h65v-191h-80v130h-40v30q24 0 38 8q4 2 9.5 8.5t7.5 14.5z" />
    <glyph glyph-name="threequarters" unicode="&#xbe;" horiz-adv-x="510" 
d="M477 491l-346 -483q-2 -3 -7 -5.5t-8 -2.5h-62q-4 0 -5.5 2.5t0.5 5.5l346 483q1 3 6 6t9 3h62q3 0 4.5 -2.5t0.5 -6.5zM450 77h20v-47h-20v-30h-60v30h-74l-23 43l73 118h84v-114zM84 436l-49 17q5 20 27 35.5t56 15.5q20 0 38 -5.5t27.5 -19t9.5 -30.5q0 -9 -5 -21
t-17 -20q16 -8 24 -19t8 -28q0 -31 -22 -44.5t-63 -13.5q-32 0 -55 14t-31 32l49 18q3 -4 10.5 -10t16.5 -6q11 0 18.5 6t6.5 16q-1 5 -7.5 10t-22.5 5v31q10 1 18 5t9 12q1 10 -6 16.5t-18 4.5q-5 -1 -11.5 -6.5t-10.5 -14.5zM390 77v62l-38 -62h38z" />
    <glyph glyph-name="questiondown" unicode="&#xbf;" horiz-adv-x="396" 
d="M204 -8q-62 0 -104 35t-56 81l-3 12l12 7l66 25l12 4l8 -11q12 -22 32.5 -33.5t41.5 -0.5q16 9 20 19.5t-2 23t-23 34t-21 26.5q-11 15 -22 41t-10 53l1 12l14 2h82l13 -1l3 -5l1 -3q3 -12 10.5 -29t31.5 -45t33 -46t14 -37q7 -28 1 -57t-24.5 -53.5t-52 -39t-78.5 -14.5
zM211 380q-29 0 -48 19t-19 45q0 27 19 46.5t48 19.5t48.5 -19t19.5 -47q0 -26 -19.5 -45t-48.5 -19z" />
    <glyph glyph-name="Agrave" unicode="&#xc0;" horiz-adv-x="608" 
d="M419 491l179 -482q1 -4 -1 -6.5t-6 -2.5h-172q-10 0 -14 9l-22 61q-1 4 -5.5 7t-7.5 3h-134q-3 0 -7.5 -3t-5.5 -7l-20 -61q-4 -9 -13 -9h-172q-4 0 -5.5 3t-0.5 6l170 482q4 9 14 9h209q10 0 14 -9zM391 615l-42 -73q-5 -8 -14 -3l-126 91q-8 5 -3 14l25 44q1 3 5.5 4
t8.5 0l142 -64q4 -1 5 -5.5t-1 -7.5zM350 201l-47 138l-43 -138h90z" />
    <glyph glyph-name="Aacute" unicode="&#xc1;" horiz-adv-x="615" 
d="M422 491l179 -482q1 -4 -1 -6.5t-6 -2.5h-172q-10 0 -14 9l-22 61q-1 4 -5.5 7t-7.5 3h-134q-3 0 -7.5 -3t-5.5 -7l-20 -61q-4 -9 -13 -9h-172q-4 0 -5.5 3t-0.5 6l170 482q4 9 14 9h209q10 0 14 -9zM240 542l-42 73q-2 3 -1 7.5t5 5.5l142 64q8 3 14 -4l25 -44
q1 -1 1.5 -5.5t-4.5 -8.5l-127 -91q-3 -2 -7 -1t-6 4zM353 201l-47 138l-43 -138h90z" />
    <glyph glyph-name="Acircumflex" unicode="&#xc2;" horiz-adv-x="627" 
d="M429 491l179 -482q1 -4 -1 -6.5t-6 -2.5h-172q-10 0 -14 9l-22 61q-1 4 -5.5 7t-7.5 3h-134q-3 0 -7.5 -3t-5.5 -7l-20 -61q-4 -9 -13 -9h-172q-4 0 -5.5 3t-0.5 6l170 482q4 9 14 9h209q10 0 14 -9zM203 543l-28 42q-3 3 -2.5 7.5t3.5 6.5l118 104q3 3 7.5 3t7.5 -3
l118 -104q3 -2 3.5 -6.5t-1.5 -7.5l-28 -42q-2 -3 -7 -4t-8 0l-75 39q-4 1 -9 1t-9 -1l-76 -39q-8 -3 -14 4zM360 201l-47 138l-43 -138h90z" />
    <glyph glyph-name="Atilde" unicode="&#xc3;" horiz-adv-x="607" 
d="M419 491l179 -482q1 -4 -1 -6.5t-6 -2.5h-172q-10 0 -14 9l-22 61q-1 4 -5.5 7t-7.5 3h-134q-3 0 -7.5 -3t-5.5 -7l-20 -61q-4 -9 -13 -9h-172q-4 0 -5.5 3t-0.5 6l170 482q4 9 14 9h209q10 0 14 -9zM350 554q-10 -1 -21.5 1t-23 6.5t-36.5 18t-40 12.5q-31 -3 -42 -17
q-5 -8 -14 -3l-40 27q18 29 47 52.5t58 24.5q19 1 36 -4t40.5 -18.5t36.5 -13.5q16 0 27 4.5t14 9.5q1 1 4.5 3.5t9.5 0.5l31 -19q7 -6 4 -14q-8 -17 -26 -37t-36 -26.5t-29 -7.5zM350 201l-47 138l-43 -138h90z" />
    <glyph glyph-name="Adieresis" unicode="&#xc4;" 
d="M614 9l-179 482q-4 9 -14 9h-209q-10 0 -14 -9l-170 -482q-1 -3 0.5 -6t5.5 -3h172q9 0 13 9l20 61q1 4 5.5 7t7.5 3h134q3 0 7.5 -3t5.5 -7l22 -61q4 -9 14 -9h172q4 0 6 2.5t1 6.5zM218 699q29 0 48.5 -19t19.5 -45q0 -28 -19.5 -47t-48.5 -19t-48 19.5t-19 46.5
q0 26 19 45t48 19zM404 699q29 0 48 -19t19 -45q0 -28 -19 -47t-48 -19t-48.5 20t-19.5 46t19.5 45t48.5 19zM319 339l47 -138h-90z" />
    <glyph glyph-name="Aring" unicode="&#xc5;" horiz-adv-x="645" 
d="M614 9l-179 482q-4 9 -14 9h-209q-10 0 -14 -9l-170 -482q-1 -3 0.5 -6t5.5 -3h172q9 0 13 9l20 61q1 4 5.5 7t7.5 3h134q3 0 7.5 -3t5.5 -7l22 -61q4 -9 14 -9h172q4 0 6 2.5t1 6.5zM312 537q-16 0 -33 7t-29 18q-11 12 -18 29t-7 33q0 17 8.5 37.5t30.5 35.5t48 15
q36 0 62 -26t26 -62q0 -17 -8.5 -37t-31 -35t-48.5 -15zM319 339l47 -138h-90zM312 667q-17 0 -29.5 -12.5t-12.5 -30.5t12 -30t30 -12t30.5 12.5t12.5 29.5q0 18 -12.5 30.5t-30.5 12.5z" />
    <glyph glyph-name="AE" unicode="&#xc6;" horiz-adv-x="790" 
d="M744 360h-219v-50h155q4 0 7 -3t3 -7v-100q0 -10 -10 -10h-155v-50h219q4 0 7 -3t3 -7v-120q0 -4 -3 -7t-7 -3h-354q-10 0 -10 10v69h-140q-4 0 -8.5 -3t-6.5 -6l-38 -62q-1 -3 -6 -5.5t-9 -2.5h-151q-4 0 -5.5 2.5t0.5 6.5l291 482q2 3 6.5 6t8.5 3h422q4 0 7 -3t3 -7
v-120q0 -4 -3 -7t-7 -3zM380 201v173l-100 -173h100z" />
    <glyph glyph-name="Ccedilla" unicode="&#xc7;" horiz-adv-x="553" 
d="M205 -169q-2 2 -1.5 6t1.5 6l20 21q1 2 5 2t6 -1q4 -3 14.5 -7t22.5 -3q14 3 22 12.5t7 21.5q-2 11 -11.5 18.5t-21.5 4.5q-14 -2 -19 -9q-1 -3 -4.5 -4t-5.5 2l-20 12q-5 5 -4 11l27 69q-46 10 -85 33.5t-67.5 57.5t-44 76.5t-15.5 89.5q0 54 21 102.5t59.5 83.5
t90.5 54.5t110 19.5q28 0 60 -5t64 -19t57.5 -35.5t36.5 -41.5q1 -4 0 -8t-4 -6l-112 -70q-7 -4 -15 3q-10 13 -33.5 22.5t-53.5 9.5q-24 0 -50 -11t-43 -38.5t-17 -60.5q0 -34 17 -62t43 -39.5t50 -11.5q33 0 59.5 14.5t39.5 33.5q1 1 4.5 3.5t9.5 0.5l104 -65
q3 -2 4.5 -6.5t0.5 -8.5q-11 -24 -41 -55t-77 -50t-104 -19l-23 1l-12 -31q12 4 29 4t31 -7q23 -11 32 -39t-2 -58q-5 -14 -19.5 -28t-39.5 -20.5t-47 -3.5q-36 6 -56 28z" />
    <glyph glyph-name="Egrave" unicode="&#xc8;" horiz-adv-x="525" 
d="M468 0h-384q-4 0 -7 3t-3 7v480q0 4 3 7t7 3h384q4 0 7 -3t3 -7v-120q0 -4 -3 -7t-7 -3h-219v-50h155q4 0 7 -3t3 -7v-100q0 -10 -10 -10h-155v-50h219q4 0 7 -3t3 -7v-120q0 -4 -3 -7t-7 -3zM359 615l-42 -73q-5 -8 -14 -3l-126 91q-8 5 -3 14l25 44q1 3 5.5 4t8.5 0
l142 -64q4 -1 5 -5.5t-1 -7.5z" />
    <glyph glyph-name="Eacute" unicode="&#xc9;" horiz-adv-x="525" 
d="M468 0h-384q-4 0 -7 3t-3 7v480q0 4 3 7t7 3h384q4 0 7 -3t3 -7v-120q0 -4 -3 -7t-7 -3h-219v-50h155q4 0 7 -3t3 -7v-100q0 -10 -10 -10h-155v-50h219q4 0 7 -3t3 -7v-120q0 -4 -3 -7t-7 -3zM205 542l-42 73q-2 3 -1 7.5t5 5.5l142 64q8 3 14 -4l25 -44q1 -1 1.5 -5.5
t-4.5 -8.5l-127 -91q-3 -2 -7 -1t-6 4z" />
    <glyph glyph-name="Ecircumflex" unicode="&#xca;" horiz-adv-x="525" 
d="M468 0h-384q-4 0 -7 3t-3 7v480q0 4 3 7t7 3h384q4 0 7 -3t3 -7v-120q0 -4 -3 -7t-7 -3h-219v-50h155q4 0 7 -3t3 -7v-100q0 -10 -10 -10h-155v-50h219q4 0 7 -3t3 -7v-120q0 -4 -3 -7t-7 -3zM161 543l-28 42q-3 3 -2.5 7.5t3.5 6.5l118 104q3 3 7.5 3t7.5 -3l118 -104
q3 -2 3.5 -6.5t-1.5 -7.5l-28 -42q-2 -3 -7 -4t-8 0l-75 39q-4 1 -9 1t-9 -1l-76 -39q-8 -3 -14 4z" />
    <glyph glyph-name="Edieresis" unicode="&#xcb;" horiz-adv-x="528" 
d="M84 0h384q4 0 7 3t3 7v120q0 4 -3 7t-7 3h-219v50h155q10 0 10 10v100q0 4 -3 7t-7 3h-155v50h219q4 0 7 3t3 7v120q0 4 -3 7t-7 3h-384q-4 0 -7 -3t-3 -7v-480q0 -4 3 -7t7 -3zM170 699q29 0 48.5 -19t19.5 -45q0 -28 -19.5 -47t-48.5 -19t-48 19.5t-19 46.5q0 26 19 45
t48 19zM356 699q29 0 48 -19t19 -45q0 -28 -19 -47t-48 -19t-48.5 20t-19.5 46t19.5 45t48.5 19z" />
    <glyph glyph-name="Igrave" unicode="&#xcc;" horiz-adv-x="322" 
d="M74 10v480q0 4 3 7t7 3h155q4 0 7 -3t3 -7v-480q0 -4 -3 -7t-7 -3h-155q-10 0 -10 10zM265 615l-42 -73q-5 -8 -14 -3l-126 91q-8 5 -3 14l25 44q1 3 5.5 4t8.5 0l142 -64q4 -1 5 -5.5t-1 -7.5z" />
    <glyph glyph-name="Iacute" unicode="&#xcd;" horiz-adv-x="328" 
d="M77 10v480q0 4 3 7t7 3h155q4 0 7 -3t3 -7v-480q0 -4 -3 -7t-7 -3h-155q-10 0 -10 10zM114 542l-42 73q-2 3 -1 7.5t5 5.5l142 64q8 3 14 -4l25 -44q1 -1 1.5 -5.5t-4.5 -8.5l-127 -91q-3 -2 -7 -1t-6 4z" />
    <glyph glyph-name="Icircumflex" unicode="&#xce;" horiz-adv-x="325" 
d="M77 10v480q0 4 3 7t7 3h155q4 0 7 -3t3 -7v-480q0 -4 -3 -7t-7 -3h-155q-10 0 -10 10zM70 544l-28 42q-3 3 -2.5 7.5t3.5 6.5l118 104q3 3 7.5 3t7.5 -3l118 -104q3 -2 3.5 -6.5t-1.5 -7.5l-28 -42q-2 -3 -7 -4t-8 0l-75 39q-4 1 -9 1t-9 -1l-76 -39q-8 -3 -14 4z" />
    <glyph glyph-name="Idieresis" unicode="&#xcf;" horiz-adv-x="377" 
d="M99 490v-480q0 -10 10 -10h155q4 0 7 3t3 7v480q0 4 -3 7t-7 3h-155q-4 0 -7 -3t-3 -7zM101 699q29 0 48.5 -19t19.5 -45q0 -28 -19.5 -47t-48.5 -19t-48 19.5t-19 46.5q0 26 19 45t48 19zM287 699q29 0 48 -19t19 -45q0 -28 -19 -47t-48 -19t-48.5 20t-19.5 46t19.5 45
t48.5 19z" />
    <glyph glyph-name="Eth" unicode="&#xd0;" horiz-adv-x="657" 
d="M130 500h165q95 0 163.5 -29.5t102.5 -86t34 -134.5q0 -79 -28 -136t-91.5 -85.5t-180.5 -28.5h-165q-4 0 -7 3t-3 7v196h-72q-4 0 -7 3t-3 7v68q0 5 10 10h72v196q0 4 3 7t7 3zM320 140q100 0 100 110t-100 110h-25v-66h53q4 0 7 -3t3 -7v-68q0 -4 -3 -7t-7 -3h-53v-66
h25z" />
    <glyph glyph-name="Ntilde" unicode="&#xd1;" horiz-adv-x="636" 
d="M217 0h-132q-10 0 -10 10v480q0 4 3 7t7 3h167q10 0 16 -8l139 -191v189q0 4 3 7t7 3h133q4 0 7 -3t3 -7v-480q0 -10 -10 -10h-149q-10 0 -16 8l-158 235v-233q0 -4 -3 -7t-7 -3zM357 556q-10 -1 -21.5 1t-23 6.5t-36.5 18t-40 12.5q-31 -3 -42 -17q-5 -8 -14 -3l-40 27
q18 29 47 52.5t58 24.5q19 1 36 -4t40.5 -18.5t36.5 -13.5q16 0 27 4.5t14 9.5q1 1 4.5 3.5t9.5 0.5l31 -19q7 -6 4 -14q-8 -17 -26 -37t-36 -26.5t-29 -7.5z" />
    <glyph glyph-name="Ograve" unicode="&#xd2;" 
d="M321 510q58 0 110 -19.5t90.5 -54.5t59.5 -83.5t21 -102.5q0 -55 -21 -103.5t-59.5 -85t-90.5 -56.5t-110 -20t-110 20t-90.5 56.5t-59.5 85t-21 103.5q0 54 21 102.5t59.5 83.5t90.5 54.5t110 19.5zM321 137q26 0 51.5 12t42.5 40t17 61t-17 60.5t-43.5 38.5t-50.5 11
t-50 -11t-42.5 -38.5t-16.5 -60.5q0 -34 16.5 -62t42.5 -39.5t50 -11.5zM422 615l-42 -73q-5 -8 -14 -3l-126 91q-8 5 -3 14l25 44q1 3 5.5 4t8.5 0l142 -64q4 -1 5 -5.5t-1 -7.5z" />
    <glyph glyph-name="Oacute" unicode="&#xd3;" 
d="M321 510q58 0 110 -19.5t90.5 -54.5t59.5 -83.5t21 -102.5q0 -55 -21 -103.5t-59.5 -85t-90.5 -56.5t-110 -20t-110 20t-90.5 56.5t-59.5 85t-21 103.5q0 54 21 102.5t59.5 83.5t90.5 54.5t110 19.5zM321 137q26 0 51.5 12t42.5 40t17 61t-17 60.5t-43.5 38.5t-50.5 11
t-50 -11t-42.5 -38.5t-16.5 -60.5q0 -34 16.5 -62t42.5 -39.5t50 -11.5zM268 542l-42 73q-2 3 -1 7.5t5 5.5l142 64q8 3 14 -4l25 -44q1 -1 1.5 -5.5t-4.5 -8.5l-127 -91q-3 -2 -7 -1t-6 4z" />
    <glyph glyph-name="Ocircumflex" unicode="&#xd4;" 
d="M321 510q58 0 110 -19.5t90.5 -54.5t59.5 -83.5t21 -102.5q0 -55 -21 -103.5t-59.5 -85t-90.5 -56.5t-110 -20t-110 20t-90.5 56.5t-59.5 85t-21 103.5q0 54 21 102.5t59.5 83.5t90.5 54.5t110 19.5zM321 137q26 0 51.5 12t42.5 40t17 61t-17 60.5t-43.5 38.5t-50.5 11
t-50 -11t-42.5 -38.5t-16.5 -60.5q0 -34 16.5 -62t42.5 -39.5t50 -11.5zM224 545l-28 42q-3 3 -2.5 7.5t3.5 6.5l118 104q3 3 7.5 3t7.5 -3l118 -104q3 -2 3.5 -6.5t-1.5 -7.5l-28 -42q-2 -3 -7 -4t-8 0l-75 39q-4 1 -9 1t-9 -1l-76 -39q-8 -3 -14 4z" />
    <glyph glyph-name="Otilde" unicode="&#xd5;" 
d="M321 510q58 0 110 -19.5t90.5 -54.5t59.5 -83.5t21 -102.5q0 -55 -21 -103.5t-59.5 -85t-90.5 -56.5t-110 -20t-110 20t-90.5 56.5t-59.5 85t-21 103.5q0 54 21 102.5t59.5 83.5t90.5 54.5t110 19.5zM321 137q26 0 51.5 12t42.5 40t17 61t-17 60.5t-43.5 38.5t-50.5 11
t-50 -11t-42.5 -38.5t-16.5 -60.5q0 -34 16.5 -62t42.5 -39.5t50 -11.5zM381 555q-10 -1 -21.5 1t-23 6.5t-36.5 18t-40 12.5q-31 -3 -42 -17q-5 -8 -14 -3l-40 27q18 29 47 52.5t58 24.5q19 1 36 -4t40.5 -18.5t36.5 -13.5q16 0 27 4.5t14 9.5q1 1 4.5 3.5t9.5 0.5l31 -19
q7 -6 4 -14q-8 -17 -26 -37t-36 -26.5t-29 -7.5z" />
    <glyph glyph-name="Odieresis" unicode="&#xd6;" horiz-adv-x="651" 
d="M327 510q58 0 110 -19.5t90.5 -54.5t59.5 -83.5t21 -102.5q0 -55 -21 -103.5t-59.5 -85t-90.5 -56.5t-110 -20t-110 20t-90.5 56.5t-59.5 85t-21 103.5q0 54 21 102.5t59.5 83.5t90.5 54.5t110 19.5zM327 137q26 0 51.5 12t42.5 40t17 61t-17 60.5t-43.5 38.5t-50.5 11
t-50 -11t-42.5 -38.5t-16.5 -60.5q0 -34 16.5 -62t42.5 -39.5t50 -11.5zM239 700q29 0 48.5 -19t19.5 -45q0 -28 -19.5 -47t-48.5 -19t-48 19.5t-19 46.5q0 26 19 45t48 19zM425 700q29 0 48 -19t19 -45q0 -28 -19 -47t-48 -19t-48.5 20t-19.5 46t19.5 45t48.5 19z" />
    <glyph glyph-name="multiply" unicode="&#xd7;" horiz-adv-x="461" 
d="M405 158q7 -7 7 -12t-7 -12l-51 -51q-4 -5 -10.5 -5.5t-12.5 5.5l-93 92l-92 -92q-12 -12 -24 0l-50 51q-3 3 -6.5 8.5t6.5 15.5l92 92l-92 92q-6 6 -7 11t7 13l50 51q3 3 8 7t16 -7l93 -93l92 93q7 7 11.5 7t11.5 -7l51 -51q12 -12 0 -24l-93 -92z" />
    <glyph glyph-name="Oslash" unicode="&#xd8;" horiz-adv-x="661" 
d="M520 462q-4 -7 4 -16q31 -25 53.5 -61t30.5 -71.5t8 -63.5q0 -55 -21 -103.5t-59 -85t-90 -56.5t-110 -20q-57 0 -107 18q-4 2 -8.5 1t-7.5 -5l-11 -16q-6 -8 -16 -8h-52q-4 0 -5.5 2.5t0.5 5.5l30 46q6 8 -6 17q-46 36 -72 89.5t-26 114.5q0 54 21 102.5t59.5 83.5
t90.5 54.5t110 19.5t115 -21q10 -5 17 3l12 20q6 8 16 8h53q4 0 5 -2.5t-1 -5.5zM226 250q0 -18 11.5 -44t18.5 -31l117 175q-5 4 -16 7t-21 3q-24 0 -50 -11t-43 -38.5t-17 -60.5zM336 136q31 0 55.5 14t39.5 40t15 60q0 15 -6.5 35t-16.5 31l-116 -176q8 -4 29 -4z" />
    <glyph glyph-name="Ugrave" unicode="&#xd9;" 
d="M68 490q0 4 3 7t7 3h155q4 0 7 -3t3 -7v-265q0 -53 21 -76.5t60 -23.5t57 22t18 77v266q0 4 3 7t7 3h155q4 0 7 -3t3 -7v-274q0 -53 -27.5 -110t-84.5 -89t-137 -32q-119 0 -187 56t-70 174v275zM419 616l-42 -73q-5 -8 -14 -3l-126 91q-8 5 -3 14l25 44q1 3 5.5 4t8.5 0
l142 -64q4 -1 5 -5.5t-1 -7.5z" />
    <glyph glyph-name="Uacute" unicode="&#xda;" 
d="M68 490q0 4 3 7t7 3h155q4 0 7 -3t3 -7v-265q0 -53 21 -76.5t60 -23.5t57 22t18 77v266q0 4 3 7t7 3h155q4 0 7 -3t3 -7v-274q0 -53 -27.5 -110t-84.5 -89t-137 -32q-119 0 -187 56t-70 174v275zM265 543l-42 73q-2 3 -1 7.5t5 5.5l142 64q8 3 14 -4l25 -44
q1 -1 1.5 -5.5t-4.5 -8.5l-127 -91q-3 -2 -7 -1t-6 4z" />
    <glyph glyph-name="Ucircumflex" unicode="&#xdb;" 
d="M68 490q0 4 3 7t7 3h155q4 0 7 -3t3 -7v-265q0 -53 21 -76.5t60 -23.5t57 22t18 77v266q0 4 3 7t7 3h155q4 0 7 -3t3 -7v-274q0 -53 -27.5 -110t-84.5 -89t-137 -32q-119 0 -187 56t-70 174v275zM221 544l-28 42q-3 3 -2.5 7.5t3.5 6.5l118 104q3 3 7.5 3t7.5 -3
l118 -104q3 -2 3.5 -6.5t-1.5 -7.5l-28 -42q-2 -3 -7 -4t-8 0l-75 39q-4 1 -9 1t-9 -1l-76 -39q-8 -3 -14 4z" />
    <glyph glyph-name="Udieresis" unicode="&#xdc;" 
d="M68 490v-275q2 -118 70 -174t187 -56q80 0 137 32t84.5 89t27.5 110v274q0 4 -3 7t-7 3h-155q-4 0 -7 -3t-3 -7v-266q0 -55 -18 -77t-57 -22t-60 23.5t-21 76.5v265q0 4 -3 7t-7 3h-155q-4 0 -7 -3t-3 -7zM230 700q29 0 48.5 -19t19.5 -45q0 -28 -19.5 -47t-48.5 -19
t-48 19.5t-19 46.5q0 26 19 45t48 19zM416 700q29 0 48 -19t19 -45q0 -28 -19 -47t-48 -19t-48.5 20t-19.5 46t19.5 45t48.5 19z" />
    <glyph glyph-name="Yacute" unicode="&#xdd;" horiz-adv-x="598" 
d="M383 0h-153q-10 0 -10 10v179q0 11 -6 18l-212 285q-2 3 -1 5.5t5 2.5h193q3 0 8 -2.5t7 -5.5l92 -132l82 131q2 3 6.5 6t8.5 3h188q4 0 5 -2.5t-1 -5.5l-197 -285q-5 -7 -5 -18v-179q0 -4 -3 -7t-7 -3zM241 544l-42 73q-2 3 -1 7.5t5 5.5l142 64q8 3 14 -4l25 -44
q1 -1 1.5 -5.5t-4.5 -8.5l-127 -91q-3 -2 -7 -1t-6 4z" />
    <glyph glyph-name="Thorn" unicode="&#xde;" horiz-adv-x="528" 
d="M285 435q58 0 101.5 -23.5t67 -63.5t23.5 -96t-23.5 -94.5t-66.5 -60.5t-102 -22h-33v-75h-176v500h176v-65h33zM276 205q20 0 34.5 12t14.5 33t-14.5 33t-34.5 12h-24v-90h24z" />
    <glyph glyph-name="germandbls" unicode="&#xdf;" horiz-adv-x="657" 
d="M538 217q37 -18 48 -27.5t17.5 -20.5t9 -23t2.5 -23q0 -17 -7 -39t-25.5 -43.5t-53.5 -38.5t-88 -17q-31 0 -62.5 10t-54 33.5t-29.5 46.5q-1 4 1 8t6 5l69 22q4 1 8.5 -0.5t6.5 -4.5q7 -9 21 -16t30 -7q41 0 37 25q-1 4 -7.5 10t-27.5 16t-25 12q-49 24 -68 51.5
t-19 56.5q0 55 57 81q6 3 24 8.5t24 9.5t6 8q0 12 -20.5 25t-56.5 13q-41 0 -65.5 -26t-24.5 -71v-139q0 -27 -9.5 -55.5t-31.5 -52t-57.5 -39t-82.5 -15.5h-40q-4 0 -7 3t-3 7v99q2 10 14 10q29 0 43 10q8 6 15.5 20.5t6.5 37.5v158q0 75 66.5 120t175.5 45q52 0 106.5 -14
t90 -49.5t35.5 -80.5q0 -31 -14 -53t-44.5 -36t-34 -16t-4.5 -5q-3 -8 4 -16t38 -23z" />
    <glyph glyph-name="agrave" unicode="&#xe0;" horiz-adv-x="608" 
d="M419 491l179 -482q1 -4 -1 -6.5t-6 -2.5h-172q-10 0 -14 9l-22 61q-1 4 -5.5 7t-7.5 3h-134q-3 0 -7.5 -3t-5.5 -7l-20 -61q-4 -9 -13 -9h-172q-4 0 -5.5 3t-0.5 6l170 482q4 9 14 9h209q10 0 14 -9zM391 615l-42 -73q-5 -8 -14 -3l-126 91q-8 5 -3 14l25 44q1 3 5.5 4
t8.5 0l142 -64q4 -1 5 -5.5t-1 -7.5zM350 201l-47 138l-43 -138h90z" />
    <glyph glyph-name="aacute" unicode="&#xe1;" horiz-adv-x="615" 
d="M422 491l179 -482q1 -4 -1 -6.5t-6 -2.5h-172q-10 0 -14 9l-22 61q-1 4 -5.5 7t-7.5 3h-134q-3 0 -7.5 -3t-5.5 -7l-20 -61q-4 -9 -13 -9h-172q-4 0 -5.5 3t-0.5 6l170 482q4 9 14 9h209q10 0 14 -9zM240 542l-42 73q-2 3 -1 7.5t5 5.5l142 64q8 3 14 -4l25 -44
q1 -1 1.5 -5.5t-4.5 -8.5l-127 -91q-3 -2 -7 -1t-6 4zM353 201l-47 138l-43 -138h90z" />
    <glyph glyph-name="acircumflex" unicode="&#xe2;" horiz-adv-x="627" 
d="M429 491l179 -482q1 -4 -1 -6.5t-6 -2.5h-172q-10 0 -14 9l-22 61q-1 4 -5.5 7t-7.5 3h-134q-3 0 -7.5 -3t-5.5 -7l-20 -61q-4 -9 -13 -9h-172q-4 0 -5.5 3t-0.5 6l170 482q4 9 14 9h209q10 0 14 -9zM203 543l-28 42q-3 3 -2.5 7.5t3.5 6.5l118 104q3 3 7.5 3t7.5 -3
l118 -104q3 -2 3.5 -6.5t-1.5 -7.5l-28 -42q-2 -3 -7 -4t-8 0l-75 39q-4 1 -9 1t-9 -1l-76 -39q-8 -3 -14 4zM360 201l-47 138l-43 -138h90z" />
    <glyph glyph-name="atilde" unicode="&#xe3;" horiz-adv-x="607" 
d="M419 491l179 -482q1 -4 -1 -6.5t-6 -2.5h-172q-10 0 -14 9l-22 61q-1 4 -5.5 7t-7.5 3h-134q-3 0 -7.5 -3t-5.5 -7l-20 -61q-4 -9 -13 -9h-172q-4 0 -5.5 3t-0.5 6l170 482q4 9 14 9h209q10 0 14 -9zM350 554q-10 -1 -21.5 1t-23 6.5t-36.5 18t-40 12.5q-31 -3 -42 -17
q-5 -8 -14 -3l-40 27q18 29 47 52.5t58 24.5q19 1 36 -4t40.5 -18.5t36.5 -13.5q16 0 27 4.5t14 9.5q1 1 4.5 3.5t9.5 0.5l31 -19q7 -6 4 -14q-8 -17 -26 -37t-36 -26.5t-29 -7.5zM350 201l-47 138l-43 -138h90z" />
    <glyph glyph-name="adieresis" unicode="&#xe4;" 
d="M614 9l-179 482q-4 9 -14 9h-209q-10 0 -14 -9l-170 -482q-1 -3 0.5 -6t5.5 -3h172q9 0 13 9l20 61q1 4 5.5 7t7.5 3h134q3 0 7.5 -3t5.5 -7l22 -61q4 -9 14 -9h172q4 0 6 2.5t1 6.5zM218 699q29 0 48.5 -19t19.5 -45q0 -28 -19.5 -47t-48.5 -19t-48 19.5t-19 46.5
q0 26 19 45t48 19zM404 699q29 0 48 -19t19 -45q0 -28 -19 -47t-48 -19t-48.5 20t-19.5 46t19.5 45t48.5 19zM319 339l47 -138h-90z" />
    <glyph glyph-name="aring" unicode="&#xe5;" horiz-adv-x="645" 
d="M614 9l-179 482q-4 9 -14 9h-209q-10 0 -14 -9l-170 -482q-1 -3 0.5 -6t5.5 -3h172q9 0 13 9l20 61q1 4 5.5 7t7.5 3h134q3 0 7.5 -3t5.5 -7l22 -61q4 -9 14 -9h172q4 0 6 2.5t1 6.5zM312 537q-16 0 -33 7t-29 18q-11 12 -18 29t-7 33q0 17 8.5 37.5t30.5 35.5t48 15
q36 0 62 -26t26 -62q0 -17 -8.5 -37t-31 -35t-48.5 -15zM319 339l47 -138h-90zM312 667q-17 0 -29.5 -12.5t-12.5 -30.5t12 -30t30 -12t30.5 12.5t12.5 29.5q0 18 -12.5 30.5t-30.5 12.5z" />
    <glyph glyph-name="ae" unicode="&#xe6;" horiz-adv-x="790" 
d="M744 360h-219v-50h155q4 0 7 -3t3 -7v-100q0 -10 -10 -10h-155v-50h219q4 0 7 -3t3 -7v-120q0 -4 -3 -7t-7 -3h-354q-10 0 -10 10v69h-140q-4 0 -8.5 -3t-6.5 -6l-38 -62q-1 -3 -6 -5.5t-9 -2.5h-151q-4 0 -5.5 2.5t0.5 6.5l291 482q2 3 6.5 6t8.5 3h422q4 0 7 -3t3 -7
v-120q0 -4 -3 -7t-7 -3zM380 201v173l-100 -173h100z" />
    <glyph glyph-name="ccedilla" unicode="&#xe7;" horiz-adv-x="553" 
d="M205 -169q-2 2 -1.5 6t1.5 6l20 21q1 2 5 2t6 -1q4 -3 14.5 -7t22.5 -3q14 3 22 12.5t7 21.5q-2 11 -11.5 18.5t-21.5 4.5q-14 -2 -19 -9q-1 -3 -4.5 -4t-5.5 2l-20 12q-5 5 -4 11l27 69q-46 10 -85 33.5t-67.5 57.5t-44 76.5t-15.5 89.5q0 54 21 102.5t59.5 83.5
t90.5 54.5t110 19.5q28 0 60 -5t64 -19t57.5 -35.5t36.5 -41.5q1 -4 0 -8t-4 -6l-112 -70q-7 -4 -15 3q-10 13 -33.5 22.5t-53.5 9.5q-24 0 -50 -11t-43 -38.5t-17 -60.5q0 -34 17 -62t43 -39.5t50 -11.5q33 0 59.5 14.5t39.5 33.5q1 1 4.5 3.5t9.5 0.5l104 -65
q3 -2 4.5 -6.5t0.5 -8.5q-11 -24 -41 -55t-77 -50t-104 -19l-23 1l-12 -31q12 4 29 4t31 -7q23 -11 32 -39t-2 -58q-5 -14 -19.5 -28t-39.5 -20.5t-47 -3.5q-36 6 -56 28z" />
    <glyph glyph-name="egrave" unicode="&#xe8;" horiz-adv-x="525" 
d="M465 0h-384q-4 0 -7 3t-3 7v480q0 4 3 7t7 3h384q4 0 7 -3t3 -7v-120q0 -4 -3 -7t-7 -3h-209q-4 0 -7 -3t-3 -7v-30q0 -4 3 -7t7 -3h145q4 0 7 -3t3 -7v-100q0 -10 -10 -10h-145q-4 0 -7 -3t-3 -7v-30q0 -4 3 -7t7 -3h209q4 0 7 -3t3 -7v-120q0 -4 -3 -7t-7 -3zM355 616
l-42 -73q-5 -8 -14 -3l-126 91q-8 5 -3 14l25 44q1 3 5.5 4t8.5 0l142 -64q4 -1 5 -5.5t-1 -7.5z" />
    <glyph glyph-name="eacute" unicode="&#xe9;" horiz-adv-x="525" 
d="M465 0h-384q-4 0 -7 3t-3 7v480q0 4 3 7t7 3h384q4 0 7 -3t3 -7v-120q0 -4 -3 -7t-7 -3h-209q-4 0 -7 -3t-3 -7v-30q0 -4 3 -7t7 -3h145q4 0 7 -3t3 -7v-100q0 -10 -10 -10h-145q-4 0 -7 -3t-3 -7v-30q0 -4 3 -7t7 -3h209q4 0 7 -3t3 -7v-120q0 -4 -3 -7t-7 -3zM212 543
l-42 73q-2 3 -1 7.5t5 5.5l142 64q8 3 14 -4l25 -44q1 -1 1.5 -5.5t-4.5 -8.5l-127 -91q-3 -2 -7 -1t-6 4z" />
    <glyph glyph-name="ecircumflex" unicode="&#xea;" horiz-adv-x="525" 
d="M465 0h-384q-4 0 -7 3t-3 7v480q0 4 3 7t7 3h384q4 0 7 -3t3 -7v-120q0 -4 -3 -7t-7 -3h-209q-4 0 -7 -3t-3 -7v-30q0 -4 3 -7t7 -3h145q4 0 7 -3t3 -7v-100q0 -10 -10 -10h-145q-4 0 -7 -3t-3 -7v-30q0 -4 3 -7t7 -3h209q4 0 7 -3t3 -7v-120q0 -4 -3 -7t-7 -3zM164 544
l-28 42q-3 3 -2.5 7.5t3.5 6.5l118 104q3 3 7.5 3t7.5 -3l118 -104q3 -2 3.5 -6.5t-1.5 -7.5l-28 -42q-2 -3 -7 -4t-8 0l-75 39q-4 1 -9 1t-9 -1l-76 -39q-8 -3 -14 4z" />
    <glyph glyph-name="edieresis" unicode="&#xeb;" horiz-adv-x="525" 
d="M81 0h384q4 0 7 3t3 7v120q0 4 -3 7t-7 3h-209q-4 0 -7 3t-3 7v30q0 4 3 7t7 3h145q10 0 10 10v100q0 4 -3 7t-7 3h-145q-4 0 -7 3t-3 7v30q0 4 3 7t7 3h209q4 0 7 3t3 7v120q0 4 -3 7t-7 3h-384q-4 0 -7 -3t-3 -7v-480q0 -4 3 -7t7 -3zM169 700q29 0 48.5 -19t19.5 -45
q0 -28 -19.5 -47t-48.5 -19t-48 19.5t-19 46.5q0 26 19 45t48 19zM355 700q29 0 48 -19t19 -45q0 -28 -19 -47t-48 -19t-48.5 20t-19.5 46t19.5 45t48.5 19z" />
    <glyph glyph-name="igrave" unicode="&#xec;" horiz-adv-x="349" 
d="M90 10v480q0 4 3 7t7 3h155q4 0 7 -3t3 -7v-480q0 -4 -3 -7t-7 -3h-155q-10 0 -10 10zM267 616l-42 -73q-5 -8 -14 -3l-126 91q-8 5 -3 14l25 44q1 3 5.5 4t8.5 0l142 -64q4 -1 5 -5.5t-1 -7.5z" />
    <glyph glyph-name="iacute" unicode="&#xed;" horiz-adv-x="349" 
d="M90 10v480q0 4 3 7t7 3h155q4 0 7 -3t3 -7v-480q0 -4 -3 -7t-7 -3h-155q-10 0 -10 10zM124 543l-42 73q-2 3 -1 7.5t5 5.5l142 64q8 3 14 -4l25 -44q1 -1 1.5 -5.5t-4.5 -8.5l-127 -91q-3 -2 -7 -1t-6 4z" />
    <glyph glyph-name="icircumflex" unicode="&#xee;" horiz-adv-x="349" 
d="M90 10v480q0 4 3 7t7 3h155q4 0 7 -3t3 -7v-480q0 -4 -3 -7t-7 -3h-155q-10 0 -10 10zM76 544l-28 42q-3 3 -2.5 7.5t3.5 6.5l118 104q3 3 7.5 3t7.5 -3l118 -104q3 -2 3.5 -6.5t-1.5 -7.5l-28 -42q-2 -3 -7 -4t-8 0l-75 39q-4 1 -9 1t-9 -1l-76 -39q-8 -3 -14 4z" />
    <glyph glyph-name="idieresis" unicode="&#xef;" horiz-adv-x="349" 
d="M90 490v-480q0 -10 10 -10h155q4 0 7 3t3 7v480q0 4 -3 7t-7 3h-155q-4 0 -7 -3t-3 -7zM82 700q29 0 48.5 -19t19.5 -45q0 -28 -19.5 -47t-48.5 -19t-48 19.5t-19 46.5q0 26 19 45t48 19zM268 700q29 0 48 -19t19 -45q0 -28 -19 -47t-48 -19t-48.5 20t-19.5 46t19.5 45
t48.5 19z" />
    <glyph glyph-name="eth" unicode="&#xf0;" horiz-adv-x="657" 
d="M130 500h165q95 0 163.5 -29.5t102.5 -86t34 -134.5q0 -79 -28 -136t-91.5 -85.5t-180.5 -28.5h-165q-4 0 -7 3t-3 7v196h-72q-4 0 -7 3t-3 7v68q0 5 10 10h72v196q0 4 3 7t7 3zM320 140q100 0 100 110t-100 110h-25v-66h53q4 0 7 -3t3 -7v-68q0 -4 -3 -7t-7 -3h-53v-66
h25z" />
    <glyph glyph-name="ntilde" unicode="&#xf1;" horiz-adv-x="630" 
d="M214 0h-132q-10 0 -10 10v480q0 4 3 7t7 3h167q8 0 16 -8l134 -184q2 -3 3.5 -2.5t1.5 4.5v180q0 4 3 7t7 3h133q4 0 7 -3t3 -7v-480q0 -10 -10 -10h-149q-10 0 -16 8l-153 228q-2 3 -3.5 2.5t-1.5 -4.5v-224q0 -4 -3 -7t-7 -3zM377 554q-10 -1 -21.5 1t-23 6.5t-36.5 18
t-40 12.5q-31 -3 -42 -17q-5 -8 -14 -3l-40 27q18 29 47 52.5t58 24.5q19 1 36 -4t40.5 -18.5t36.5 -13.5q16 0 27 4.5t14 9.5q1 1 4.5 3.5t9.5 0.5l31 -19q7 -6 4 -14q-8 -17 -26 -37t-36 -26.5t-29 -7.5z" />
    <glyph glyph-name="ograve" unicode="&#xf2;" 
d="M322 510q58 0 110 -19.5t90.5 -54.5t59.5 -83.5t21 -102.5q0 -55 -21 -103.5t-59.5 -85t-90.5 -56.5t-110 -20t-110 20t-90.5 56.5t-59.5 85t-21 103.5q0 54 21 102.5t59.5 83.5t90.5 54.5t110 19.5zM322 137q26 0 51.5 12t42.5 40t17 61t-17 60.5t-43.5 38.5t-50.5 11
t-50 -11t-42.5 -38.5t-16.5 -60.5q0 -34 16.5 -62t42.5 -39.5t50 -11.5zM413 616l-42 -73q-5 -8 -14 -3l-126 91q-8 5 -3 14l25 44q1 3 5.5 4t8.5 0l142 -64q4 -1 5 -5.5t-1 -7.5z" />
    <glyph glyph-name="oacute" unicode="&#xf3;" 
d="M322 510q58 0 110 -19.5t90.5 -54.5t59.5 -83.5t21 -102.5q0 -55 -21 -103.5t-59.5 -85t-90.5 -56.5t-110 -20t-110 20t-90.5 56.5t-59.5 85t-21 103.5q0 54 21 102.5t59.5 83.5t90.5 54.5t110 19.5zM322 137q26 0 51.5 12t42.5 40t17 61t-17 60.5t-43.5 38.5t-50.5 11
t-50 -11t-42.5 -38.5t-16.5 -60.5q0 -34 16.5 -62t42.5 -39.5t50 -11.5zM270 543l-42 73q-2 3 -1 7.5t5 5.5l142 64q8 3 14 -4l25 -44q1 -1 1.5 -5.5t-4.5 -8.5l-127 -91q-3 -2 -7 -1t-6 4z" />
    <glyph glyph-name="ocircumflex" unicode="&#xf4;" 
d="M322 510q58 0 110 -19.5t90.5 -54.5t59.5 -83.5t21 -102.5q0 -55 -21 -103.5t-59.5 -85t-90.5 -56.5t-110 -20t-110 20t-90.5 56.5t-59.5 85t-21 103.5q0 54 21 102.5t59.5 83.5t90.5 54.5t110 19.5zM322 137q26 0 51.5 12t42.5 40t17 61t-17 60.5t-43.5 38.5t-50.5 11
t-50 -11t-42.5 -38.5t-16.5 -60.5q0 -34 16.5 -62t42.5 -39.5t50 -11.5zM222 544l-28 42q-3 3 -2.5 7.5t3.5 6.5l118 104q3 3 7.5 3t7.5 -3l118 -104q3 -2 3.5 -6.5t-1.5 -7.5l-28 -42q-2 -3 -7 -4t-8 0l-75 39q-4 1 -9 1t-9 -1l-76 -39q-8 -3 -14 4z" />
    <glyph glyph-name="otilde" unicode="&#xf5;" 
d="M322 510q58 0 110 -19.5t90.5 -54.5t59.5 -83.5t21 -102.5q0 -55 -21 -103.5t-59.5 -85t-90.5 -56.5t-110 -20t-110 20t-90.5 56.5t-59.5 85t-21 103.5q0 54 21 102.5t59.5 83.5t90.5 54.5t110 19.5zM322 137q26 0 51.5 12t42.5 40t17 61t-17 60.5t-43.5 38.5t-50.5 11
t-50 -11t-42.5 -38.5t-16.5 -60.5q0 -34 16.5 -62t42.5 -39.5t50 -11.5zM383 554q-10 -1 -21.5 1t-23 6.5t-36.5 18t-40 12.5q-31 -3 -42 -17q-5 -8 -14 -3l-40 27q18 29 47 52.5t58 24.5q19 1 36 -4t40.5 -18.5t36.5 -13.5q16 0 27 4.5t14 9.5q1 1 4.5 3.5t9.5 0.5l31 -19
q7 -6 4 -14q-8 -17 -26 -37t-36 -26.5t-29 -7.5z" />
    <glyph glyph-name="odieresis" unicode="&#xf6;" 
d="M322 510q58 0 110 -19.5t90.5 -54.5t59.5 -83.5t21 -102.5q0 -55 -21 -103.5t-59.5 -85t-90.5 -56.5t-110 -20t-110 20t-90.5 56.5t-59.5 85t-21 103.5q0 54 21 102.5t59.5 83.5t90.5 54.5t110 19.5zM322 137q26 0 51.5 12t42.5 40t17 61t-17 60.5t-43.5 38.5t-50.5 11
t-50 -11t-42.5 -38.5t-16.5 -60.5q0 -34 16.5 -62t42.5 -39.5t50 -11.5zM228 700q29 0 48.5 -19t19.5 -45q0 -28 -19.5 -47t-48.5 -19t-48 19.5t-19 46.5q0 26 19 45t48 19zM414 700q29 0 48 -19t19 -45q0 -28 -19 -47t-48 -19t-48.5 20t-19.5 46t19.5 45t48.5 19z" />
    <glyph glyph-name="divide" unicode="&#xf7;" horiz-adv-x="552" 
d="M62 289h430q10 0 10 -10v-67q0 -10 -10 -10h-430q-4 0 -7 3t-3 7v67q0 4 3 7t7 3zM277 170q29 0 49.5 -20.5t20.5 -49.5t-20.5 -49.5t-49.5 -20.5t-49.5 20.5t-20.5 49.5t20.5 49.5t49.5 20.5zM277 330q-29 0 -49.5 20.5t-20.5 49.5t20.5 49.5t49.5 20.5t49.5 -20.5
t20.5 -49.5t-20.5 -49.5t-49.5 -20.5z" />
    <glyph glyph-name="oslash" unicode="&#xf8;" horiz-adv-x="661" 
d="M520 462q-4 -7 4 -16q31 -25 53.5 -61t30.5 -71.5t8 -63.5q0 -55 -21 -103.5t-59 -85t-90 -56.5t-110 -20q-57 0 -107 18q-4 2 -8.5 1t-7.5 -5l-11 -16q-6 -8 -16 -8h-52q-4 0 -5.5 2.5t0.5 5.5l30 46q6 8 -6 17q-46 36 -72 89.5t-26 114.5q0 54 21 102.5t59.5 83.5
t90.5 54.5t110 19.5t115 -21q10 -5 17 3l12 20q6 8 16 8h53q4 0 5 -2.5t-1 -5.5zM226 250q0 -18 11.5 -44t18.5 -31l117 175q-5 4 -16 7t-21 3q-24 0 -50 -11t-43 -38.5t-17 -60.5zM336 136q31 0 55.5 14t39.5 40t15 60q0 15 -6.5 35t-16.5 31l-116 -176q8 -4 29 -4z" />
    <glyph glyph-name="ugrave" unicode="&#xf9;" horiz-adv-x="630" 
d="M62 490q0 4 3 7t7 3h155q4 0 7 -3t3 -7v-265q0 -53 21 -76.5t60 -23.5t57 22t18 77v266q0 4 3 7t7 3h155q4 0 7 -3t3 -7v-274q0 -53 -27.5 -110t-84.5 -89t-137 -32q-119 0 -187 56t-70 174v275zM407 616l-42 -73q-5 -8 -14 -3l-126 91q-8 5 -3 14l25 44q1 3 5.5 4t8.5 0
l142 -64q4 -1 5 -5.5t-1 -7.5z" />
    <glyph glyph-name="uacute" unicode="&#xfa;" horiz-adv-x="630" 
d="M62 490q0 4 3 7t7 3h155q4 0 7 -3t3 -7v-265q0 -53 21 -76.5t60 -23.5t57 22t18 77v266q0 4 3 7t7 3h155q4 0 7 -3t3 -7v-274q0 -53 -27.5 -110t-84.5 -89t-137 -32q-119 0 -187 56t-70 174v275zM264 543l-42 73q-2 3 -1 7.5t5 5.5l142 64q8 3 14 -4l25 -44
q1 -1 1.5 -5.5t-4.5 -8.5l-127 -91q-3 -2 -7 -1t-6 4z" />
    <glyph glyph-name="ucircumflex" unicode="&#xfb;" horiz-adv-x="630" 
d="M62 490q0 4 3 7t7 3h155q4 0 7 -3t3 -7v-265q0 -53 21 -76.5t60 -23.5t57 22t18 77v266q0 4 3 7t7 3h155q4 0 7 -3t3 -7v-274q0 -53 -27.5 -110t-84.5 -89t-137 -32q-119 0 -187 56t-70 174v275zM216 544l-28 42q-3 3 -2.5 7.5t3.5 6.5l118 104q3 3 7.5 3t7.5 -3
l118 -104q3 -2 3.5 -6.5t-1.5 -7.5l-28 -42q-2 -3 -7 -4t-8 0l-75 39q-4 1 -9 1t-9 -1l-76 -39q-8 -3 -14 4z" />
    <glyph glyph-name="udieresis" unicode="&#xfc;" horiz-adv-x="630" 
d="M62 490v-275q2 -118 70 -174t187 -56q80 0 137 32t84.5 89t27.5 110v274q0 4 -3 7t-7 3h-155q-4 0 -7 -3t-3 -7v-266q0 -55 -18 -77t-57 -22t-60 23.5t-21 76.5v265q0 4 -3 7t-7 3h-155q-4 0 -7 -3t-3 -7zM222 700q29 0 48.5 -19t19.5 -45q0 -28 -19.5 -47t-48.5 -19
t-48 19.5t-19 46.5q0 26 19 45t48 19zM408 700q29 0 48 -19t19 -45q0 -28 -19 -47t-48 -19t-48.5 20t-19.5 46t19.5 45t48.5 19z" />
    <glyph glyph-name="yacute" unicode="&#xfd;" horiz-adv-x="597" 
d="M383 0h-153q-10 0 -10 10v179q0 10 -6 18l-212 285q-2 3 -1 5.5t5 2.5h193q3 0 8 -2.5t7 -5.5l86 -124q2 -3 5.5 -3t5.5 3l77 123q1 3 6 6t9 3h188q4 0 5 -2.5t-1 -5.5l-197 -285q-5 -7 -5 -18v-179q0 -4 -3 -7t-7 -3zM248 543l-42 73q-2 3 -1 7.5t5 5.5l142 64
q8 3 14 -4l25 -44q1 -1 1.5 -5.5t-4.5 -8.5l-127 -91q-3 -2 -7 -1t-6 4z" />
    <glyph glyph-name="thorn" unicode="&#xfe;" horiz-adv-x="528" 
d="M285 435q58 0 101.5 -23.5t67 -63.5t23.5 -96t-23.5 -94.5t-66.5 -60.5t-102 -22h-33v-75h-176v500h176v-65h33zM276 205q20 0 34.5 12t14.5 33t-14.5 33t-34.5 12h-24v-90h24z" />
    <glyph glyph-name="ydieresis" unicode="&#xff;" horiz-adv-x="597" 
d="M230 0h153q4 0 7 3t3 7v179q0 11 5 18l197 285q2 3 1 5.5t-5 2.5h-188q-4 0 -9 -3t-6 -6l-77 -123q-2 -3 -5.5 -3t-5.5 3l-86 124q-2 3 -7 5.5t-8 2.5h-193q-4 0 -5 -2.5t1 -5.5l212 -285q6 -8 6 -18v-179q0 -10 10 -10zM205 700q29 0 48.5 -19t19.5 -45q0 -28 -19.5 -47
t-48.5 -19t-48 19.5t-19 46.5q0 26 19 45t48 19zM391 700q29 0 48 -19t19 -45q0 -28 -19 -47t-48 -19t-48.5 20t-19.5 46t19.5 45t48.5 19z" />
    <glyph glyph-name="dotlessi" unicode="&#x131;" horiz-adv-x="329" 
d="M80 10v480q0 4 3 7t7 3h155q4 0 7 -3t3 -7v-480q0 -4 -3 -7t-7 -3h-155q-10 0 -10 10z" />
    <glyph glyph-name="OE" unicode="&#x152;" horiz-adv-x="813" 
d="M772 360h-208q-4 0 -7 -3t-3 -7v-30q0 -10 10 -10h145q4 0 7 -3t3 -7v-100q0 -4 -3 -7t-7 -3h-145q-4 0 -7 -3t-3 -7v-30q0 -10 10 -10h208q4 0 7 -3t3 -7v-120q0 -10 -10 -10h-353l-20 -2q-54 -13 -87 -13q-58 0 -110 20t-90.5 56.5t-59.5 85t-21 103.5q0 54 21 102.5
t59.5 83.5t90.5 54.5t110 19.5q27 0 71 -8l20 -2h369q4 0 7 -3t3 -7v-120q0 -10 -10 -10zM202 250q0 -34 17 -62t43 -39.5t50 -11.5q14 0 32 3t27 11q8 8 8 17v162q0 4 -2.5 9t-6.5 7q-20 14 -58 14q-24 0 -50 -11t-43 -38.5t-17 -60.5z" />
    <glyph glyph-name="oe" unicode="&#x153;" horiz-adv-x="813" 
d="M772 360h-208q-4 0 -7 -3t-3 -7v-30q0 -10 10 -10h145q4 0 7 -3t3 -7v-100q0 -4 -3 -7t-7 -3h-145q-4 0 -7 -3t-3 -7v-30q0 -10 10 -10h208q4 0 7 -3t3 -7v-120q0 -10 -10 -10h-353l-20 -2q-54 -13 -87 -13q-58 0 -110 20t-90.5 56.5t-59.5 85t-21 103.5q0 54 21 102.5
t59.5 83.5t90.5 54.5t110 19.5q27 0 71 -8l20 -2h369q4 0 7 -3t3 -7v-120q0 -10 -10 -10zM202 250q0 -34 17 -62t43 -39.5t50 -11.5q14 0 32 3t27 11q8 8 8 17v162q0 4 -2.5 9t-6.5 7q-20 14 -58 14q-24 0 -50 -11t-43 -38.5t-17 -60.5z" />
    <glyph glyph-name="Scaron" unicode="&#x160;" horiz-adv-x="468" 
d="M21 89q-5 9 3 14l90 60q4 2 8.5 2t7.5 -3q17 -13 42.5 -24.5t49.5 -12.5q14 -1 27 6t9.5 21t-29.5 23q-34 11 -78 30t-67 36q-60 42 -60 119q0 28 15 55t44 48.5t71 34t92 12.5q37 0 76 -12t69.5 -40.5t42.5 -56.5q1 -4 -0.5 -8t-4.5 -6l-93 -54q-4 -2 -8.5 -1.5
t-6.5 3.5q-14 17 -37 29t-44 10t-26.5 -16t6.5 -25.5t29 -16.5q41 -12 87 -30t67 -37q24 -21 35.5 -44.5t11.5 -58.5q0 -24 -12.5 -52t-38 -52.5t-66.5 -40.5t-93 -16q-73 0 -132 31.5t-87 72.5zM102 652l28 41q2 3 6.5 4t8.5 0l76 -38q3 -2 8 -2t9 2l76 38q4 1 8.5 0
t6.5 -4l28 -41q2 -4 1.5 -8.5t-3.5 -6.5l-118 -104q-3 -3 -7.5 -3t-7.5 3l-118 104q-3 2 -3.5 6.5t1.5 8.5z" />
    <glyph glyph-name="scaron" unicode="&#x161;" horiz-adv-x="484" 
d="M119 653l28 41q2 3 6.5 4t8.5 0l76 -38q3 -2 8 -2t9 2l76 38q4 1 8.5 0t6.5 -4l28 -41q2 -4 1.5 -8.5t-3.5 -6.5l-118 -104q-3 -3 -7.5 -3t-7.5 3l-118 104q-3 2 -3.5 6.5t1.5 8.5zM30 89q-5 9 3 14l90 60q4 2 8.5 2t7.5 -3q17 -13 42.5 -24.5t49.5 -12.5q14 -1 27 6
t9.5 21t-29.5 23q-34 11 -78 30t-67 36q-60 42 -60 119q0 28 15 55t44 48.5t71 34t92 12.5q37 0 76 -12t69.5 -40.5t42.5 -56.5q1 -4 -0.5 -8t-4.5 -6l-93 -54q-4 -2 -8.5 -1.5t-6.5 3.5q-14 17 -37 29t-44 10t-26.5 -16t6.5 -25.5t29 -16.5q41 -12 87 -30t67 -37
q24 -21 35.5 -44.5t11.5 -58.5q0 -24 -12.5 -52t-38 -52.5t-66.5 -40.5t-93 -16q-73 0 -132 31.5t-87 72.5z" />
    <glyph glyph-name="Ydieresis" unicode="&#x178;" horiz-adv-x="584" 
d="M224 0h153q4 0 7 3t3 7v179q0 11 5 18l197 285q2 3 1 5.5t-5 2.5h-188q-2 0 -6.5 -1.5t-8.5 -7.5l-82 -131l-92 132q-2 3 -7 5.5t-8 2.5h-193q-4 0 -5 -2.5t1 -5.5l212 -285q6 -7 6 -18v-179q0 -10 10 -10zM192 701q29 0 48.5 -19t19.5 -45q0 -28 -19.5 -47t-48.5 -19
t-48 19.5t-19 46.5q0 26 19 45t48 19zM378 701q29 0 48 -19t19 -45q0 -28 -19 -47t-48 -19t-48.5 20t-19.5 46t19.5 45t48.5 19z" />
    <glyph glyph-name="Zcaron" unicode="&#x17d;" horiz-adv-x="513" 
d="M127 652l28 41q2 3 6.5 4t8.5 0l76 -38q3 -2 8 -2t9 2l76 38q4 1 8.5 0t6.5 -4l28 -41q2 -4 1.5 -8.5t-3.5 -6.5l-118 -104q-3 -3 -7.5 -3t-7.5 3l-118 104q-3 2 -3.5 6.5t1.5 8.5zM460 0h-390q-4 0 -7.5 3t-4.5 6l-18 71q-2 10 4 18l208 262h-185q-10 0 -10 10v120
q0 4 3 7t7 3h376q2 0 6 -2t7 -8l20 -80q3 -10 -3 -18l-194 -252h181q4 0 7 -3t3 -7v-120q0 -10 -10 -10z" />
    <glyph glyph-name="zcaron" unicode="&#x17e;" horiz-adv-x="513" 
d="M129 653l28 41q2 3 6.5 4t8.5 0l76 -38q3 -2 8 -2t9 2l76 38q4 1 8.5 0t6.5 -4l28 -41q2 -4 1.5 -8.5t-3.5 -6.5l-118 -104q-3 -3 -7.5 -3t-7.5 3l-118 104q-3 2 -3.5 6.5t1.5 8.5zM460 0h-390q-4 0 -7.5 3t-4.5 6l-18 71q-2 10 4 18l208 262h-185q-10 0 -10 10v120
q0 4 3 7t7 3h376q2 0 6 -2t7 -8l20 -80q3 -10 -3 -18l-194 -252h181q4 0 7 -3t3 -7v-120q0 -10 -10 -10z" />
    <glyph glyph-name="florin" unicode="&#x192;" horiz-adv-x="465" 
d="M406 479v-105q0 -10 -7 -10h-21q-39 0 -54 -20t-15 -71h51q4 0 7 -3t3 -7v-47q0 -4 -3 -7t-7 -3h-51v-56q0 -78 -52 -118t-167 -40h-21q-4 0 -7 3t-3 7v110q0 4 2.5 7t6.5 3q43 0 58.5 19t14.5 65h-48q-4 0 -7 3t-3 7v47q0 4 3 7t7 3h48v34q0 87 44 134.5t132 47.5h79
q10 0 10 -10z" />
    <glyph glyph-name="circumflex" unicode="&#x2c6;" horiz-adv-x="347" 
d="M80 544l-28 42q-3 3 -2.5 7.5t3.5 6.5l118 104q3 3 7.5 3t7.5 -3l118 -104q3 -2 3.5 -6.5t-1.5 -7.5l-28 -42q-2 -3 -7 -4t-8 0l-75 39q-4 1 -9 1t-9 -1l-76 -39q-8 -3 -14 4z" />
    <glyph glyph-name="tilde" unicode="&#x2dc;" horiz-adv-x="405" 
d="M262 554q-10 -1 -21.5 1t-23 6.5t-36.5 18t-40 12.5q-31 -3 -42 -17q-5 -8 -14 -3l-40 27q18 29 47 52.5t58 24.5q19 1 36 -4t40.5 -18.5t36.5 -13.5q16 0 27 4.5t14 9.5q1 1 4.5 3.5t9.5 0.5l31 -19q7 -6 4 -14q-8 -17 -26 -37t-36 -26.5t-29 -7.5z" />
    <glyph glyph-name="endash" unicode="&#x2013;" horiz-adv-x="520" 
d="M510 310v-85q0 -4 -3 -7t-7 -3h-480q-10 0 -10 10v85q0 4 3 7t7 3h480q4 0 7 -3t3 -7z" />
    <glyph glyph-name="emdash" unicode="&#x2014;" horiz-adv-x="770" 
d="M760 310v-85q0 -10 -10 -10h-730q-4 0 -7 3t-3 7v85q0 4 3 7t7 3h730q4 0 7 -3t3 -7z" />
    <glyph glyph-name="quoteleft" unicode="&#x2018;" horiz-adv-x="227" 
d="M119 352q-22 0 -41 12.5t-24.5 34t-1.5 46.5q6 34 33 64t58 46q3 2 8 1.5t8 -3.5l16 -16q3 -3 2.5 -6.5t-3.5 -5.5q-32 -21 -41 -51q-1 -3 5 -5q20 -6 32 -22t12 -35q0 -25 -18 -42.5t-45 -17.5z" />
    <glyph glyph-name="quoteright" unicode="&#x2019;" horiz-adv-x="224" 
d="M112 560q14 0 32 -7t28 -25t10 -33.5t-2 -27.5q-6 -34 -33 -64t-58 -46q-3 -2 -8 -1.5t-8 3.5l-16 16q-3 3 -2.5 6.5t3.5 5.5q32 21 40 50q1 4 -5 6q-19 5 -31 21.5t-12 35.5q0 25 17.5 42.5t44.5 17.5z" />
    <glyph glyph-name="quotesinglbase" unicode="&#x201a;" horiz-adv-x="245" 
d="M122 122q19 0 35.5 -8t27 -28.5t4.5 -56.5q-6 -33 -33 -63.5t-58 -46.5q-9 -3 -16 2l-16 16q-3 3 -2.5 7t3.5 5q41 25 41 52q-1 3 -5 4q-20 5 -32 21.5t-12 36.5q0 24 18 41.5t45 17.5z" />
    <glyph glyph-name="quotedblleft" unicode="&#x201c;" horiz-adv-x="383" 
d="M119 352q-22 0 -41 12.5t-24.5 34t-1.5 46.5q6 34 33 64t58 46q3 2 8 1.5t8 -3.5l16 -16q3 -3 2.5 -6.5t-3.5 -5.5q-32 -21 -41 -51q-1 -3 5 -5q20 -6 32 -22t12 -35q0 -25 -18 -42.5t-45 -17.5zM285 352q-22 0 -41 12.5t-24.5 34t-1.5 46.5q6 34 33 64t58 46q3 2 8 1.5
t8 -3.5l16 -16q3 -3 2.5 -6.5t-3.5 -5.5q-32 -21 -41 -51q-1 -3 5 -5q20 -6 32 -22t12 -35q0 -25 -18 -42.5t-45 -17.5z" />
    <glyph glyph-name="quotedblright" unicode="&#x201d;" horiz-adv-x="387" 
d="M282 560q14 0 32 -7t28 -25t10 -33.5t-2 -27.5q-6 -34 -33 -64t-58 -46q-3 -2 -8 -1.5t-8 3.5l-16 16q-3 3 -2.5 6.5t3.5 5.5q32 21 40 50q1 4 -5 6q-19 5 -31 21.5t-12 35.5q0 25 17.5 42.5t44.5 17.5zM112 560q14 0 32 -7t28 -25t10 -33.5t-2 -27.5q-6 -34 -33 -64
t-58 -46q-3 -2 -8 -1.5t-8 3.5l-16 16q-3 3 -2.5 6.5t3.5 5.5q32 21 40 50q1 4 -5 6q-19 5 -31 21.5t-12 35.5q0 25 17.5 42.5t44.5 17.5z" />
    <glyph glyph-name="quotedblbase" unicode="&#x201e;" horiz-adv-x="378" 
d="M279 122q19 0 35.5 -8t27 -28.5t4.5 -56.5q-6 -33 -33 -63.5t-58 -46.5q-9 -3 -16 2l-16 16q-3 3 -2.5 7t3.5 5q41 25 41 52q-1 3 -5 4q-20 5 -32 21.5t-12 36.5q0 24 18 41.5t45 17.5zM104 122q19 0 35.5 -8t27 -28.5t4.5 -56.5q-6 -33 -33 -63.5t-58 -46.5q-9 -3 -16 2
l-16 16q-3 3 -2.5 7t3.5 5q41 25 41 52q-1 3 -5 4q-20 5 -32 21.5t-12 36.5q0 24 18 41.5t45 17.5z" />
    <glyph glyph-name="dagger" unicode="&#x2020;" horiz-adv-x="418" 
d="M378 352v-85q0 -4 -3 -7t-7 -3h-97q-4 0 -7 -3t-3 -7v-362q0 -10 -10 -10h-85q-4 0 -7 3t-3 7v362q0 10 -10 10h-96q-4 0 -7 3t-3 7v85q0 10 10 10h96q4 0 7 3t3 7v118q0 4 3 7t7 3h85q4 0 7 -3t3 -7v-118q0 -4 3 -7t7 -3h97q4 0 7 -3t3 -7z" />
    <glyph glyph-name="daggerdbl" unicode="&#x2021;" horiz-adv-x="418" 
d="M368 257h-96q-10 0 -10 -10v-110q0 -4 3 -7t7 -3h96q10 0 10 -10v-85q0 -4 -3 -7t-7 -3h-96q-10 0 -10 -10v-127q0 -4 -3 -7t-7 -3h-85q-10 0 -10 10v127q0 4 -3 7t-7 3h-97q-4 0 -7 3t-3 7v85q0 4 3 7t7 3h97q4 0 7 3t3 7v110q0 4 -3 7t-7 3h-97q-4 0 -7 3t-3 7v85
q0 4 3 7t7 3h97q4 0 7 3t3 7v118q0 4 3 7t7 3h85q4 0 7 -3t3 -7v-118q0 -4 3 -7t7 -3h96q10 0 10 -10v-85q0 -4 -3 -7t-7 -3z" />
    <glyph glyph-name="bullet" unicode="&#x2022;" horiz-adv-x="308" 
d="M252 250q0 -35 -26.5 -61.5t-61.5 -26.5q-17 0 -37 9t-35 31t-15 48q0 35 26 61t61 26q26 0 48 -15t31 -35t9 -37z" />
    <glyph glyph-name="ellipsis" unicode="&#x2026;" horiz-adv-x="704" 
d="M124 122q29 0 48.5 -19t19.5 -45q0 -28 -19.5 -47t-48.5 -19t-48 19.5t-19 46.5q0 26 19 45t48 19zM353 122q29 0 48.5 -19t19.5 -45q0 -28 -19.5 -47t-48.5 -19t-48 19.5t-19 46.5q0 26 19 45t48 19zM582 122q29 0 48.5 -19t19.5 -45q0 -28 -19.5 -47t-48.5 -19
t-48 19.5t-19 46.5q0 26 19 45t48 19z" />
    <glyph glyph-name="perthousand" unicode="&#x2030;" horiz-adv-x="837" 
d="M301 370q0 -24 -12.5 -52t-44 -48t-70.5 -20t-71 20t-44.5 48t-12.5 52q0 51 36.5 84.5t91.5 33.5q54 0 90.5 -33.5t36.5 -84.5zM135 370q0 -19 10.5 -32.5t28.5 -13.5q17 0 27.5 13.5t10.5 32.5t-10.5 32.5t-27.5 13.5q-18 0 -28.5 -13.5t-10.5 -32.5zM471 500h57
q4 0 5.5 -2.5t-0.5 -5.5l-322 -483q-2 -3 -6.5 -6t-8.5 -3h-57q-4 0 -5.5 2.5t0.5 6.5l322 483q5 8 15 8zM672 259q55 0 91.5 -33.5t36.5 -84.5q0 -24 -12.5 -52t-44.5 -48t-71 -20q-21 0 -45.5 9t-38.5 24q-14 -16 -38.5 -24.5t-45.5 -8.5q-39 0 -70.5 20t-44 48t-12.5 52
q0 51 36.5 84.5t90.5 33.5q22 0 46 -7.5t37 -19.5q15 12 38.5 19.5t46.5 7.5zM504 95q18 0 28.5 13.5t10.5 32.5t-10.5 32.5t-28.5 13.5q-17 0 -27.5 -13.5t-10.5 -32.5t10.5 -32.5t27.5 -13.5zM672 95q18 0 28.5 13.5t10.5 32.5t-10.5 32.5t-28.5 13.5q-17 0 -27.5 -13.5
t-10.5 -32.5t10.5 -32.5t27.5 -13.5z" />
    <glyph glyph-name="guilsinglleft" unicode="&#x2039;" horiz-adv-x="308" 
d="M266 65l-45 -30q-3 -2 -7.5 -1.5t-6.5 3.5l-175 205q-2 3 -2 8t2 8l175 205q2 3 6.5 3.5t7.5 -1.5l45 -30q3 -2 4 -6.5t-1 -7.5l-96 -162q-5 -9 0 -18l96 -162q2 -3 1 -7.5t-4 -6.5z" />
    <glyph glyph-name="guilsinglright" unicode="&#x203a;" horiz-adv-x="311" 
d="M46 435l45 30q3 2 7.5 1.5t7.5 -3.5l174 -205q6 -8 0 -16l-174 -205q-3 -3 -7.5 -3.5t-7.5 1.5l-45 30q-3 2 -4 6.5t1 7.5l97 162q1 4 1 9t-1 9l-97 162q-2 3 -1 7.5t4 6.5z" />
    <glyph glyph-name="Euro" unicode="&#x20ac;" horiz-adv-x="631" 
d="M474 182l101 -63q2 -2 4 -6.5t1 -8.5q-8 -23 -34 -52.5t-70 -48t-99 -18.5q-46 0 -98 16.5t-97.5 60t-65.5 102.5h-70q-4 0 -7 3t-3 7v33q0 4 3 7t7 3h67v38h-67q-4 0 -7 3t-3 7v33q0 4 3 7t7 3h71q12 50 49.5 94.5t95 67t115.5 22.5q54 0 96.5 -15t67.5 -39t33 -43
q1 -4 -0.5 -8t-4.5 -6l-100 -67q-3 -2 -7.5 -1t-5.5 5q-8 15 -29 27t-50 12q-33 0 -60.5 -17.5t-31.5 -31.5h101q4 0 7 -3t3 -7v-33q0 -4 -3 -7t-7 -3h-115v-38h115q4 0 7 -3t3 -7v-33q0 -4 -3 -7t-7 -3h-96q1 -13 30 -27t57 -14q32 0 54.5 16.5t30.5 37.5q1 2 3.5 4.5
t8.5 0.5z" />
    <glyph glyph-name="trademark" unicode="&#x2122;" horiz-adv-x="444" 
d="M330 486h51v-126h-39v76l-32 -76h-21l-33 76v-76h-38v126h51l31 -66zM66 450v36h127v-36h-40v-90h-44v90h-43z" />
    </font>
</defs>
</svg>
